<?xml version="1.0" encoding="UTF-8" standalone="no"?>
<!-- Created with Inkscape (http://www.inkscape.org/) -->

<svg
   width="1200"
   height="3000"
   viewBox="0 0 317.49999 793.75"
   version="1.1"
   id="svg1"
   inkscape:version="1.4.3 (0d15f75, 2025-12-25)"
   sodipodi:docname="clouds-night-mobile.svg"
   xmlns:inkscape="http://www.inkscape.org/namespaces/inkscape"
   xmlns:sodipodi="http://sodipodi.sourceforge.net/DTD/sodipodi-0.dtd"
   xmlns="http://www.w3.org/2000/svg"
   xmlns:svg="http://www.w3.org/2000/svg">
  <sodipodi:namedview
     id="namedview1"
     pagecolor="#ffffff"
     bordercolor="#000000"
     borderopacity="0.25"
     inkscape:showpageshadow="2"
     inkscape:pageopacity="0.0"
     inkscape:pagecheckerboard="true"
     inkscape:deskcolor="#d1d1d1"
     inkscape:document-units="mm"
     inkscape:zoom="0.18064506"
     inkscape:cx="799.91116"
     inkscape:cy="1776.9653"
     inkscape:window-width="1146"
     inkscape:window-height="687"
     inkscape:window-x="123"
     inkscape:window-y="36"
     inkscape:window-maximized="0"
     inkscape:current-layer="layer1" />
  <defs
     id="defs1" />
  <g
     inkscape:label="Layer 1"
     inkscape:groupmode="layer"
     id="layer1">
    <path
       id="path15"
       d="m 304.0395,443.31103 c 25.01011,-2.79671 50.62361,1.6529 68.07183,18.52751 20.39905,-9.47115 47.18423,-9.79795 59.96328,10.74696 4.42253,7.11437 5.57665,15.272 5.42261,23.58674 10.0343,-3.33721 20.64972,-4.99639 30.54753,-0.0691 11.35872,5.65003 16.11571,17.60994 13.7102,29.06709 -2.95286,14.05903 -16.02923,24.07696 -30.18134,28.28146 -25.20605,7.49145 -58.99092,2.08656 -82.63137,-10.1499 -23.23095,17.42767 -57.00975,15.3097 -84.51865,4.19824 -6.32871,6.34761 -15.02309,10.7658 -24.24385,13.24828 -10.67285,2.87215 -21.43086,3.08582 -32.17804,2.12425 -0.25947,1.58377 -0.65409,3.15497 -1.20006,4.70102 -2.85489,8.09479 -9.69512,14.66238 -17.76918,18.6909 -8.07475,4.02227 -17.31037,5.694 -26.46356,6.05853 -12.00603,0.47764 -24.10397,-1.2381 -35.42889,-4.97125 -10.95531,7.97537 -24.80401,12.56325 -38.75137,12.59467 -17.467129,0.0375 -34.815349,-7.08293 -46.561229,-19.1057 -6.63481,-6.79384 -11.4229,-15.08975 -14.02574,-23.9387 -11.0337,4.24852 -22.60998,7.24006 -34.47751,8.35875 -17.3103602,1.63404 -35.27955,-0.8673 -50.612792,-8.51586 -8.879534,-4.43074 -16.800219,-10.65896 -22.850533,-18.13157 -16.613028,8.20164 -36.928296,11.24975 -54.656926,5.89512 -15.56163,-4.70102 -25.70947,-19.72162 -20.97814,-34.83648 0.70411,-2.24996 1.73995,-4.39306 3.063,-6.37277 -4.6239,-7.26518 -3.75695,-17.12598 0.74262,-24.37862 13.4615,-21.68246 48.841749,-25.45961 72.240281,-19.93529 11.507371,2.72131 22.326168,7.88738 31.4557,14.94517 9.8985,-7.67998 20.7929898,-14.31043 33.3024496,-16.64206 7.8558104,-1.46435 16.0582704,-1.01185 23.7282704,1.08098 10.15121,-9.88595 24.29994,-16.25242 38.99125,-17.15743 11.88914,-0.72903 23.93099,2.13682 34.165309,7.79313 14.86837,-11.88451 31.54423,-22.05328 50.65402,-26.56574 23.01068,-5.43004 48.2289,-3.03555 69.25028,7.36574 13.47166,6.66816 25.0905,16.45981 33.76191,28.13694 4.78674,-2.4385 9.71064,-4.6319 14.78523,-6.52361 10.50326,-3.92798 22.0228,-6.80011 33.67341,-8.10735"
       style="fill:#214478;fill-opacity:1;fill-rule:nonzero;stroke:none;stroke-width:0.0651667" />
    <path
       id="path16"
       d="m -7.9512792,515.5105 c 2.75352,-3.94056 7.27876004,-6.92582 12.1520098,-8.39645 4.31846,-1.30724 8.8646404,-1.6089 13.4155704,-1.35752 4.69077,-5.21008 11.41073,-8.49072 19.06517,-8.23934 5.82329,0.19483 11.22561,2.56419 14.46701,6.66814 0.20946,-2.9287 -0.56762,-5.95166 -2.16635,-8.51586 -0.45542,-0.73532 -0.97776,-1.42664 -1.5629,-2.07397 -3.9759,-4.3805 -10.4303,-6.48588 -16.57589,-6.05223 -4.54821,0.32051 -8.90182,1.92314 -12.68512,4.31763 -7.43013,-2.91613 -16.6171104,-1.02442 -21.8038602,5.00897 -4.39888,5.11579 -5.24014,12.04161 -4.30564,18.64063 z M 156.42697,465.10034 c 5.76517,1.06212 11.33846,3.47548 15.35758,7.24635 14.9839,-4.17311 32.05033,0.40849 42.02721,12.57581 4.58741,5.59345 7.80717,12.06049 10.13229,18.7789 0.53246,-4.99638 0.71964,-9.99906 0.23109,-14.99546 -0.0115,-0.10686 -0.0216,-0.21367 -0.0331,-0.32052 -1.07033,-10.31331 -5.42122,-20.75232 -14.02911,-27.33248 -8.68221,-6.6367 -20.49635,-8.42159 -31.77263,-6.95724 -6.64493,-6.6367 -18.62869,-9.06262 -27.6224,-6.23448 -10.5965,3.33092 -18.4861,11.97248 -23.56406,21.31165 9.25791,-3.69544 19.1814,-5.9391 29.27315,-4.07253 z m 158.10699,34.44683 c 4.19143,-5.61858 11.48169,-9.23232 18.89626,-10.07449 7.3585,-0.83587 14.77038,0.68504 21.67548,3.31837 3.18732,-1.88543 6.92267,-3.07326 10.67894,-3.44406 6.36181,-0.63477 12.74932,0.75417 18.68883,3.0544 -3.14543,-3.51947 -6.44088,-6.9321 -10.34582,-9.70997 -4.9827,-3.53833 -11.13303,-5.98939 -17.3901,-5.6123 -4.22523,0.25139 -8.43422,2.00485 -11.31007,4.8267 -4.29617,-0.95528 -8.74236,-1.30095 -13.08921,-0.66619 -5.7746,0.84844 -11.36206,3.58233 -14.74332,8.01309 -0.92979,1.21924 -1.66834,2.57675 -2.19202,3.99711 -0.74734,2.0237 -1.05884,4.18566 -0.86897,6.29734 z M -93.69567,457.67802 c 11.74523,-1.71573 23.953984,-1.05583 33.967341,1.30723 11.507371,2.72131 22.326168,7.88739 31.4557,14.9452 9.8985,-7.68 20.7929898,-14.31043 33.3024496,-16.64209 7.8558104,-1.46434 16.0582704,-1.01183 23.7276004,1.081 10.15122,-9.88594 24.30061,-16.25241 38.99192,-17.15743 11.88914,-0.72905 23.93099,2.13682 34.165309,7.79311 14.86837,-11.8845 31.54423,-22.05326 50.65402,-26.56573 23.01068,-5.43005 48.2289,-3.03553 69.25028,7.36576 13.47166,6.66814 25.0905,16.45981 33.76191,28.13691 4.78674,-2.43849 9.71064,-4.63187 14.78523,-6.52358 10.50326,-3.92798 22.0228,-6.80013 33.67341,-8.10737 25.01011,-2.79671 50.62361,1.6529 68.0725,18.52751 20.39904,-9.47115 47.18356,-9.79795 59.96261,10.74696 4.42253,7.11437 5.57665,15.272 5.42261,23.58674 10.0343,-3.33721 20.64972,-4.99639 30.54753,-0.0691 10.62895,5.29179 15.48055,16.10788 14.08183,26.87369 -0.0947,0.72905 -0.22297,1.46437 -0.37163,2.1934 -0.68924,3.26807 -1.91903,6.31617 -3.58803,9.11918 -8.32478,2.5202 -17.67324,2.90986 -26.12639,2.50135 -15.37242,-0.73531 -31.33678,-4.09767 -44.03814,-12.55068 -4.39211,-2.92242 -8.21189,-6.45446 -11.25058,-10.47672 -5.42325,4.02855 -12.39187,6.27848 -19.32128,5.73799 -6.474,-0.50278 -12.54593,-3.41262 -17.06914,-7.69885 -12.56216,17.63508 -44.33274,21.76418 -64.71286,11.70226 -6.48617,-3.20524 -12.17161,-7.84339 -15.90018,-13.71339 -5.69489,8.06337 -16.60223,13.85165 -25.30673,17.14486 -15.50894,5.86999 -32.77335,6.50474 -49.30869,4.68217 -3.53329,2.75901 -7.68959,4.79528 -12.3831,6.00823 -22.92958,5.94542 -53.36293,-0.18853 -66.16022,-19.96043 -9.59239,3.53833 -20.01729,4.41191 -30.028629,0.67875 -5.06446,-1.89171 -9.61875,-4.8707 -12.91486,-8.63528 -10.00729,13.84536 -34.79508,23.09655 -48.96407,14.29786 -21.46328,12.69525 -50.65538,18.99888 -71.784872,2.3568 -5.948276,-4.68845 -10.48027,-10.88523 -12.593227,-17.72935 -9.24373,2.82188 -18.944915,4.82671 -28.504207,2.80301 -27.913625,-5.90142 -24.750605,-33.75553 -15.495415,-53.75996"
       style="fill:#3771c8;fill-opacity:1;fill-rule:nonzero;stroke:none;stroke-width:0.0651667" />
    <path
       id="path24"
       d="m 176.89574,121.79595 c 0.3447,1.02757 0.81838,2.01064 1.42338,2.9165 2.27928,3.41738 6.28205,5.52635 10.36926,5.76744 2.3379,5.41399 8.06421,9.50316 13.61464,11.25866 8.34091,2.63561 18.92122,2.4109 25.91378,-3.2629 4.85166,6.51879 11.16185,10.9731 19.17681,13.25527 8.0689,2.29854 16.95382,2.16512 24.7976,-0.92925 3.73545,-1.47463 7.67963,-3.9932 9.11706,-7.53465 5.63017,-0.0236 11.22985,-1.34121 15.43197,-5.31101 4.38501,-4.143 5.92796,-11.78532 2.36602,-16.49711 1.00363,-3.31675 0.56748,-7.10866 -1.06224,-10.21474 -2.20658,-4.20854 -6.32192,-7.20929 -10.81011,-8.78223 -3.5596,-1.24993 -7.34901,-1.67359 -11.13371,-1.65721 -1.10682,-4.449632 -5.40506,-7.841273 -10.01754,-9.454008 -6.14135,-2.1464 -13.15503,-1.395049 -19.34094,0.96202 -4.2959,-1.790616 -9.14287,-2.272794 -13.69437,-1.285026 -4.23494,0.917542 -8.17207,3.096718 -11.24627,6.137259 -3.6276,-2.326638 -9.75722,-2.366423 -13.26289,-2.26344 -7.36073,0.215341 -15.54922,2.7386 -19.17448,9.465715 -3.7167,0.0234 -7.44748,1.54251 -9.92607,4.32558 -3.10937,3.48761 -4.01451,8.70031 -2.5419,13.10313"
       style="fill:#214478;fill-opacity:1;fill-rule:nonzero;stroke:none;stroke-width:0.023428" />
    <path
       id="path25"
       d="m 218.25086,110.76666 c 1.59456,-0.30428 3.22663,-0.40728 4.84696,-0.30428 1.7423,-1.57763 3.91839,-2.68476 6.22813,-3.13886 2.21127,-0.43069 4.53274,-0.25981 6.66663,0.46112 -0.36816,-0.52432 -0.7879,-1.01587 -1.24516,-1.46527 -1.40696,-1.37633 -3.19848,-2.36877 -5.13772,-2.74328 -3.17036,-0.61092 -6.59159,0.45878 -8.9248,2.67072 -2.11278,-0.44005 -4.39672,-0.11938 -6.25862,0.98074 -2.47623,1.46293 -4.09658,4.24132 -4.24196,7.09929 2.37307,-1.7719 5.15416,-3.0031 8.06654,-3.56018 z m 23.07878,8.04259 c 0.20635,-0.48686 0.44788,-0.95969 0.71285,-1.41845 2.80923,-0.96437 5.67706,-1.84446 8.63636,-1.85616 2.3543,-0.01 4.8071,0.63432 6.68069,2.00128 2.51142,-0.48687 5.1776,-0.21769 7.51314,0.83094 2.8702,1.28503 5.19168,3.71934 6.404,6.61008 0.34939,-1.79998 0.42912,-3.62805 -0.12891,-5.35314 -0.83245,-2.57709 -3.04137,-4.57837 -5.57857,-5.53103 -1.90877,-0.71625 -3.9817,-0.88478 -6.01708,-0.67412 -2.50439,-2.08788 -6.04991,-2.93756 -9.26716,-2.24471 -3.47049,0.74668 -6.46731,3.14119 -8.2424,6.21686 -0.33534,0.11468 -0.66831,0.22938 -1.00131,0.34641 z m -51.96593,-14.44201 c 3.62526,-6.727115 11.81375,-9.250374 19.17448,-9.465715 3.50567,-0.103037 9.63529,-0.0632 13.26289,2.26344 3.0742,-3.040541 7.01133,-5.219717 11.24627,-6.137259 4.5515,-0.987768 9.39847,-0.50559 13.69437,1.285026 6.18591,-2.357069 13.19959,-3.10842 19.34094,-0.96202 4.61248,1.612735 8.91072,5.004376 10.01754,9.454008 3.7847,-0.0164 7.57411,0.40728 11.13371,1.65721 4.48819,1.57294 8.60353,4.57369 10.81011,8.78223 1.62972,3.10608 2.06587,6.89799 1.06224,10.21474 1.36944,1.81168 1.98382,4.05406 1.97208,6.36665 -0.0115,2.85095 -0.97783,5.80255 -2.6521,8.176 -2.91241,0.77008 -6.01005,0.84498 -8.94122,0.15683 -3.56896,-0.83797 -6.85187,-2.79478 -9.33748,-5.48188 -2.12684,1.56357 -4.61247,2.63795 -7.21534,3.09204 -1.79857,0.31364 -3.64402,0.33237 -5.44727,0.0515 -0.42208,1.5823 -1.36241,3.05926 -2.60522,4.14534 -2.12448,1.85851 -4.98295,2.6988 -7.7992,2.90713 -4.45069,0.3277 -9.07723,-0.87542 -12.53129,-3.69359 -2.45984,-2.01066 -4.25135,-4.87097 -4.91498,-7.95364 -2.22298,0.28087 -4.46473,0.26917 -6.6502,-0.20832 -2.23238,-0.48452 -4.39675,-1.52846 -6.10149,-3.01714 -4.16225,3.99554 -10.52638,5.69488 -16.0909,4.04704 -4.51163,-1.33887 -8.25883,-4.80542 -10.21215,-9.05843 -3.79644,0.40259 -7.71716,-0.3394 -11.0657,-2.17216 -4.30998,-2.36409 -7.59991,-6.49773 -8.97873,-11.20484 2.41292,-2.09257 5.62547,-3.22546 8.82864,-3.24419"
       style="fill:#3771c8;fill-opacity:1;fill-rule:nonzero;stroke:none;stroke-width:0.023428" />
    <path
       id="path34"
       d="m 1.2982306,363.72566 c 3.65679,-3.92479 8.7909704,-6.72915 13.7504404,-8.80092 10.13035,-4.22976 23.27385,-5.75127 32.71478,-0.0465 -0.70656,-3.47728 -0.49724,-7.1236 0.74568,-10.46499 1.69929,-4.56452 5.37215,-8.486 10.06117,-10.39866 2.75841,-1.12373 5.84912,-1.5149 8.82068,-1.14363 2.62108,-4.60431 6.54728,-8.52579 11.46342,-10.85944 6.9432,-3.29627 15.84459,-3.05198 22.091019,1.32263 4.83159,3.38446 7.61934,9.29151 7.12175,14.88698 5.72683,-1.47179 11.68672,-2.39664 17.57219,-2.13807 3.69312,0.16247 7.35725,0.78892 10.91586,2.0353 16.21778,5.68498 24.2554,26.70774 14.40669,40.67652 -1.27682,1.81323 -2.88804,3.32811 -4.74527,4.4618 -0.90748,6.50703 -9.2449,11.49257 -15.56645,12.908 -8.63339,1.93256 -18.08059,0.34144 -26.01163,-3.22534 -3.85877,-1.73365 -7.511369,-4.01096 -10.479779,-6.94461 -1.25166,-1.23312 -2.38977,-2.57564 -3.36956,-4.00102 -7.56064,11.88043 -26.21571,17.02838 -39.65133,18.04603 -11.58922,0.87845 -23.49083,-1.03423 -33.43387,-6.63631 -7.51522,5.00873 -17.55298016,6.58328 -26.4844302,7.04403 -10.1292898,0.52375 -20.9969598,-0.63313 -29.9776918,-5.40651 -2.73044,-1.44858 -5.239713,-3.25851 -7.370195,-5.40984 -3.824157,2.1646 -8.931787,2.60879 -13.140347,2.42648 -6.171635,-0.2685 -13.523312,-2.19775 -15.920418,-8.27054 -2.266054,-5.74464 0.963045,-12.08926 5.887926,-15.57979 5.965826,-4.22644 14.096726,-3.82535 21.049348,-2.63531 1.42255,0.24198 2.835293,0.53368 4.237904,0.86517 2.335238,-3.21208 5.958852,-5.86396 9.731662,-7.41532 3.772792,-1.55465 7.890492,-2.26073 11.999802,-2.42646 8.41988,-0.3315 16.8652798,2.30051 23.5806496,7.13024"
       style="fill:#214478;fill-opacity:1;fill-rule:nonzero;stroke:none;stroke-width:0.0340339" />
    <path
       id="path35"
       d="m 60.520811,354.71257 c 1.90301,-2.32037 4.2103,-4.33913 6.99352,-5.59213 2.23565,-1.00771 4.81375,-1.44859 7.25278,-1.15689 0.27745,-0.31492 0.56852,-0.62319 0.87113,-0.91822 4.2082,-4.11703 10.76842,-5.86065 16.46728,-3.62976 3.13615,1.2265 5.69677,3.5005 7.0606,6.30486 0.0863,-1.55799 -0.0881,-3.11597 -0.58355,-4.58776 -0.17786,-0.53038 -0.39695,-1.04418 -0.66008,-1.54803 -2.34572,-4.47173 -7.89014,-6.93136 -13.14978,-6.70925 -4.08239,0.16906 -7.95758,1.74028 -11.30129,4.01427 -3.18926,-0.16247 -6.49138,0.95468 -8.83395,3.04967 -3.03308,2.71154 -4.4521,6.82196 -4.11666,10.77324 z m -129.821946,13.49476 c 5.965826,-4.22643 14.096726,-3.82533 21.049348,-2.6353 1.42255,0.24199 2.835293,0.53369 4.237904,0.86185 2.335238,-3.20875 5.958852,-5.86066 9.731662,-7.412 3.772792,-1.55466 7.890492,-2.26071 11.999802,-2.42646 8.41988,-0.33149 16.8652798,2.30052 23.5806496,7.13024 3.65679,-3.92479 8.7909704,-6.72915 13.7504404,-8.80092 10.13035,-4.22976 23.27385,-5.75127 32.71478,-0.0465 -0.70656,-3.47728 -0.49724,-7.1236 0.74568,-10.46499 1.69929,-4.56452 5.37215,-8.486 10.06117,-10.39866 2.75841,-1.12373 5.84912,-1.5149 8.82068,-1.14363 2.62108,-4.60431 6.54728,-8.52579 11.46342,-10.85944 6.9432,-3.29596 15.84459,-3.05198 22.091019,1.32263 4.83159,3.38446 7.61934,9.29151 7.12141,14.88698 5.72717,-1.47179 11.68706,-2.39664 17.57253,-2.13807 3.69312,0.16247 7.35725,0.78892 10.91586,2.0353 1.18423,0.41436 2.32476,0.91158 3.41779,1.48173 3.57782,1.86628 6.64791,4.51152 9.07786,7.63743 -1.46027,4.79327 -5.8575,8.89043 -10.44903,11.15115 -5.72507,2.82095 -12.42332,3.82533 -18.77911,2.83752 -1.27926,6.11257 -10.832,8.81418 -16.68743,8.6186 -5.142919,-0.17565 -10.760009,-1.96901 -14.222529,-5.59547 -5.66462,8.18105 -21.25098,9.78212 -30.42004,9.00644 -2.1022,-0.17566 -4.20017,-0.53037 -6.19997,-1.12704 -1.08113,7.09046 -9.00308,12.19864 -16.13987,13.37542 -9.77111,1.61433 -20.99134,-2.25743 -26.8299904,-10.0473 -4.90984,3.94464 -11.1520798,6.40759 -17.5784698,6.79211 -6.8387098,0.41104 -13.7832998,-1.5414 -19.3581198,-5.30707 -3.43455,3.69275 -9.565332,4.83304 -14.684837,5.16121 -11.321902,0.71933 -22.836706,-1.79995 -32.112001,-8.07827 1.184926,-2.28393 2.990077,-4.31594 5.109392,-5.81756"
       style="fill:#3771c8;fill-opacity:1;fill-rule:nonzero;stroke:none;stroke-width:0.0340339" />
    <path
       id="path26"
       d="m 61.956621,203.61311 c -4.95661,-4.01599 -11.67577,-4.23608 -18.18902,-4.08139 -0.79851,-6.44183 -3.64625,-12.57107 -10.35192,-16.48658 -5.15098,-3.00798 -11.64497,-4.19302 -17.93889,-3.95058 -9.2186004,0.35567 -18.5430402,3.10848 -24.9966502,8.54711 -3.1267598,-0.4641 -6.3958898,-0.27432 -9.3937298,0.5981 -3.35186,0.97608 -6.32082,2.79429 -8.49705,5.11647 -8.472032,-4.73688 -24.504078,1.44021 -28.254244,8.2441 -0.248217,0.44976 -0.456038,0.90111 -0.625359,1.35407 -1.300723,3.4466 -0.484885,6.99527 0.992868,10.37488 -0.446405,1.09571 -0.688856,2.24563 -0.706171,3.40036 -0.03659,2.39077 0.862027,4.74325 2.220468,6.85172 3.919506,6.08298 11.84316,10.19148 20.142036,10.69546 5.370312,0.32696 10.632862,-0.73365 15.753042,-2.23607 2.40903,1.53591 5.20098,2.74166 7.69469,3.72891 10.88876964,4.30784 26.0357,5.68743 35.77576,-0.60287 4.64104,0.9378 9.59574,1.41786 14.2599,1.07975 2.82849,-0.20415 5.59543,-0.96651 7.82166,-2.22491 3.30955,0.1101 6.64603,-0.20573 9.69965,-1.24243 3.79637,-1.29027 7.11168,-3.80705 8.35853,-7.0479 0.61572,-1.60129 0.64652,-3.36846 0.11933,-4.98889 2.04921,-5.93625 1.76638,-12.55351 -3.88486,-17.12931"
       style="fill:#214478;fill-opacity:1;fill-rule:nonzero;stroke:none;stroke-width:0.0175181" />
    <path
       id="path27"
       d="m 42.880581,215.55899 c -0.83895,2.08773 -2.87661,3.83733 -5.32798,4.62364 1.53546,-3.35092 1.88181,-7.11491 -0.50219,-10.26804 -0.31557,-0.41627 -0.66385,-0.80384 -1.03906,-1.1611 -2.56298,-2.43062 -6.45168,-3.49923 -10.33656,-3.45935 -0.28476,-1.29028 -1.0044,-2.51517 -2.09539,-3.46413 -1.69326,-1.47372 -4.22543,-2.23767 -6.66525,-2.06383 1.74905,-0.79585 3.6578,-1.34929 5.63775,-1.52952 2.52065,-0.22807 5.15675,0.17388 7.30216,1.29348 1.69134,0.88357 3.04787,2.22809 3.73285,3.77515 2.72269,0.6284 5.24525,1.8485 7.06165,3.63319 2.38787,2.34772 3.40382,5.70659 2.23202,8.62051 z m -27.14017,-25.1597 c -1.74136,-1.02714 -3.92528,-1.42745 -6.0630204,-1.48008 -2.44558,-0.0622 -4.92582,0.30781 -7.11359,1.21691 -1.16219,0.48484 -2.37053976,1.04785 -3.32106976,1.79426 0.64652,-1.02871 1.4046398,-2.08295 2.34359976,-2.8485 1.89531,-1.54228 4.41788,-2.5981 7.07126,-2.7241 2.6514904,-0.12596 5.4011104,0.74003 7.0924304,2.43863 0.25207,0.25358 0.47912,0.52629 0.67539,0.8118 0.43679,0.63477 0.73502,1.33652 0.87356,2.05583 -0.43677,-0.48484 -0.96785,-0.91547 -1.55856,-1.26475 z m -18.1543802,18.94592 c -0.0114,0.091 -0.0251,0.18181 -0.0404,0.27113 -0.22514,1.25839 -0.90629,2.44659 -1.89723,3.4163 -0.077,-2.10529 -0.68307,-4.18186 -2.78425,-5.56624 -2.72075,-1.79107 -6.1957698,-1.35088 -9.3359898,-0.56459 -0.66191,-1.57099 -2.31666,-2.77036 -4.287,-3.38919 -3.07864,-0.96491 -6.30353,-0.41626 -9.18398,0.73047 1.04287,-1.95058 2.79194,-3.6619 5.05859,-4.66671 2.45137,-1.08771 5.5127,-1.28229 8.03912,-0.31737 1.53739,0.58692 2.82848,1.62361 3.60201,2.86126 2.44174,-0.65074 5.2567798,-0.33653 7.3617998,0.88995 2.39941,1.39874 3.7675,3.9187 3.46733,6.33499 z m 69.4137902,4.47532 c -0.10185,-3.75443 -1.54125,-7.37167 -5.0432,-10.20742 -4.95661,-4.01599 -11.67577,-4.23608 -18.18902,-4.08139 -0.79851,-6.44183 -3.64625,-12.57107 -10.35192,-16.48658 -5.15098,-3.00798 -11.64497,-4.19302 -17.93889,-3.95058 -9.2186004,0.35567 -18.5430402,3.10848 -24.9966502,8.54711 -3.1267598,-0.4641 -6.3958898,-0.27432 -9.3937298,0.5981 -3.35186,0.97608 -6.32082,2.79429 -8.49705,5.11647 -6.449762,-3.60608 -17.28466,-0.88677 -23.738262,3.62046 0.796596,3.38917 2.618776,6.60451 5.610825,8.97613 2.362859,1.87244 5.514615,3.11328 8.743355,3.42588 1.78367,3.02553 4.84885,5.53591 8.560562,6.91552 3.17677,1.18183 6.78454,1.51676 10.20569,1.02073 1.82217,2.76877 4.95855,5.01442 8.4874398,6.28556 3.40959,1.22968 7.12322,1.67783 10.8579998,1.6555 3.02474,1.70337 6.9635,2.42906 10.6944304,2.60929 3.32685,0.16105 6.76147,-0.0223 9.8074,-1.14676 1.3219,-0.48644 2.56296,-1.17544 3.59433,-2.01437 3.35762,1.12601 6.93078,1.81023 10.54434,2.01119 3.02092,0.16745 6.165,-0.0223 8.85879,-1.16588 1.29112,-0.54865 2.45907,-1.35248 3.32495,-2.31899 2.30704,0.37957 4.75074,0.15624 6.91347,-0.59969 2.97091,1.97927 6.54981,3.33335 10.29807,3.91709 0.1404,-0.26635 0.26168,-0.53908 0.36944,-0.81659 0.61572,-1.60129 0.64652,-3.36846 0.11933,-4.98889 0.77928,-2.25837 1.22184,-4.61565 1.15833,-6.92189"
       style="fill:#3771c8;fill-opacity:1;fill-rule:nonzero;stroke:none;stroke-width:0.0175181" />
    <path
       id="path36"
       d="m 226.86018,266.20403 c -0.0497,-0.0209 -0.0992,-0.0422 -0.14864,-0.0637 -1.57553,-0.68374 -2.95709,-1.69444 -3.94207,-2.91224 -2.73724,0.69387 -5.84952,0.94454 -8.4402,-0.0278 -1.65098,-0.61878 -2.66829,-1.74496 -3.32997,-3.04015 -3.5735,-0.29354 -6.91424,-2.27726 -8.28503,-5.03132 -1.28887,-2.58859 -0.76082,-5.7056 1.21345,-7.96684 -1.25009,-1.01944 -2.27171,-2.21855 -2.90321,-3.5689 -1.0367,-2.21499 -0.92248,-4.84808 0.64229,-6.84069 1.24361,-1.58161 3.45927,-2.64908 5.70943,-2.71669 -0.16166,-1.70082 -0.0689,-3.41411 0.35563,-5.08291 0.76512,-3.00314 2.66827,-5.85862 5.61027,-7.73556 3.74593,-2.38935 8.75919,-2.98892 13.48795,-2.77186 4.4184,0.20281 8.96609,1.18132 12.54177,3.41054 3.26745,2.03887 4.92705,4.88365 6.12323,7.9455 2.18118,-1.31832 5.05854,-1.87695 7.69665,-1.35033 2.57989,0.51594 4.78692,2.04063 6.0133,3.97632 1.60786,-0.93584 3.54334,-1.48912 5.51115,-1.53539 2.97648,-0.0713 5.96159,1.02301 7.8949,2.88927 1.45484,1.40551 2.29325,3.22554 2.38595,5.06869 1.52164,0.27043 2.93338,1.01232 3.85154,2.05843 1.43327,1.63499 1.65527,3.90159 0.71987,5.7661 -0.55607,1.11371 -1.49794,2.07621 -2.66182,2.80564 0.8492,2.01575 0.3815,4.41755 -1.31904,6.04188 -1.30182,1.24181 -3.25022,1.96234 -5.23094,2.05307 -1.11645,1.76487 -3.05193,3.18105 -5.34088,3.82332 -1.6596,0.46612 -3.47222,0.51595 -5.17922,0.18858 -1.18973,1.88656 -2.92046,3.54559 -5.08007,4.70415 -2.64672,1.42025 -5.94219,2.05167 -9.04368,1.5713 -1.94626,-0.3012 -3.79336,-1.05537 -5.26113,-2.14525 -1.70485,0.704 -3.51963,1.21745 -5.40123,1.45549 -2.77171,0.35032 -5.69217,0.0775 -8.19018,-0.96872"
       style="fill:#214478;fill-opacity:1;fill-rule:nonzero;stroke:none;stroke-width:0.019582" />
    <path
       id="path37"
       d="m 250.06213,237.45521 c -1.61434,-0.33802 -3.29549,-0.38785 -4.95723,-0.22773 0.35777,-0.38962 0.75867,-0.76501 1.18973,-1.10837 2.4937,-1.99082 6.02842,-2.96934 8.31951,-0.10675 1.45484,1.81826 2.51956,4.08128 3.30194,6.21088 -1.98935,-2.2399 -4.36666,-4.04036 -7.85395,-4.76802 z m -24.7387,-11.14968 c -2.84932,1.35391 -4.92274,3.7308 -5.69648,6.36388 -2.0648,-0.25619 -4.08864,0.72411 -5.26328,2.3164 -0.76515,1.03188 -1.0949,2.1385 -1.04319,3.23799 -0.72202,-2.93911 -0.56684,-5.52949 0.4634,-7.15736 1.07336,-1.68483 3.17909,-2.45339 5.78055,-2.09403 0.0625,-1.13328 0.45263,-2.09579 1.1143,-2.78608 1.26949,-1.34679 3.47868,-1.83959 5.99609,-1.78977 1.69192,0.0338 3.57134,0.28998 5.56287,0.65647 -2.39456,-0.14412 -4.83007,0.26332 -6.91426,1.2525 z m 53.52505,14.60293 c -0.91816,-1.0461 -2.3299,-1.788 -3.85154,-2.05843 -0.0497,-0.98562 -0.31253,-1.96413 -0.76728,-2.87681 -0.39875,-0.79349 -0.94189,-1.53714 -1.61865,-2.19186 -1.93332,-1.86628 -4.91844,-2.96045 -7.89491,-2.88928 -1.96781,0.0463 -3.90328,0.59956 -5.51115,1.53538 -1.22637,-1.93569 -3.43342,-3.46037 -6.01332,-3.97631 -2.6381,-0.52662 -5.51544,0.0321 -7.69662,1.35033 -1.19619,-3.06183 -2.8558,-5.90664 -6.12324,-7.94551 -3.57567,-2.22922 -8.12338,-3.20773 -12.54176,-3.41053 -4.72877,-0.21707 -9.74202,0.3825 -13.48796,2.77185 -2.942,1.87696 -4.84514,4.73242 -5.61029,7.73556 -0.42459,1.6688 -0.51727,3.38209 -0.35563,5.08292 -2.25014,0.0677 -4.4658,1.13507 -5.70941,2.7167 -1.45915,1.85561 -1.65743,4.26808 -0.84058,6.38166 1.61866,1.27562 3.60368,2.23812 5.75901,2.7416 2.71784,0.63336 5.67062,0.53019 8.33243,-0.23483 1.67685,1.61009 3.955,2.79853 6.46163,3.29313 2.48939,0.49104 5.15552,0.28644 7.51773,-0.50883 2.34282,2.58683 5.81935,4.48513 9.6558,5.1452 4.46582,0.77034 9.29587,-0.1566 12.9556,-2.38937 1.89021,0.34516 3.84937,0.40921 5.73314,0.0445 1.93761,-0.37362 3.77179,-1.25606 5.05635,-2.49432 1.51949,-0.0657 3.02607,-0.37894 4.39468,-0.93224 1.45699,-0.59068 2.74803,-1.44999 3.7718,-2.48542 1.26086,0.37538 2.63164,0.54619 3.97008,0.52305 1.93978,-0.0321 3.83217,-0.41987 5.66633,-0.96071 0.15304,-1.3966 -0.25863,-2.83412 -1.25224,-3.96743"
       style="fill:#3771c8;fill-opacity:1;fill-rule:nonzero;stroke:none;stroke-width:0.019582" />
    <path
       id="path17"
       d="m 46.092651,631.56237 c 0.39758,-1.44327 1.03459,-2.81361 1.91782,-4.03117 2.41255,-3.31975 6.46508,-5.22815 10.52437,-5.31709 5.24975,-6.12881 13.91951,-8.88541 21.82803,-6.38875 9.97996,3.14651 15.87802,13.65532 14.08216,23.66934 4.0932,0.1345 8.159269,1.63024 11.296919,4.30249 2.98178,2.54225 5.06452,6.0946 5.96809,9.92283 7.86333,-0.0109 16.68221,2.55367 19.59847,10.66202 1.82523,5.07885 0.71383,10.71356 -1.85457,15.42577 6.36114,-0.10762 12.82394,2.33227 16.90809,7.36733 5.43046,6.69632 5.01934,16.12894 -0.49019,22.62074 -4.48849,5.28745 -11.55894,8.38149 -18.45321,8.03036 -5.44177,-0.27587 -10.70506,-2.353 -15.15515,-5.5565 -2.8937,1.72372 -5.97939,3.09861 -9.27291,3.84875 -12.505449,2.85008 -27.154599,1.36349 -38.071989,-5.92817 -3.10379,2.78395 -7.10885,4.4826 -11.08007,5.86432 -8.8053,3.05985 -19.55555,4.13831 -28.66129,1.76935 -12.27277,-3.1921 -16.0451704,-16.49649 -12.08527,-27.68727 0.86743,-2.45107 2.43963,-4.69442 4.43427,-6.43661 -1.48411,-5.84745 -0.0362,-11.81895 6.04941,-15.34072 6.16237,-3.56762 14.0257,-4.07197 21.18652,-2.61067 -2.45774,-6.78458 -3.40647,-14.01009 -0.12431,-20.86852 0.61895,-1.29278 1.38022,-2.51718 2.2657,-3.61844 -1.40051,-2.98233 -1.68967,-6.51642 -0.81094,-9.69939"
       style="fill:#214478;fill-opacity:1;fill-rule:nonzero;stroke:none;stroke-width:0.0226947" />
    <path
       id="path18"
       d="m 33.289041,665.22659 c 3.18057,-0.39331 6.46731,-0.29642 9.65692,0.19834 2.29959,4.41353 3.75884,9.19231 3.04279,14.04885 -1.11593,7.58829 -7.54483,13.59555 -14.77116,15.97069 -6.24594,2.05296 -12.97754,1.80582 -19.48552,0.65052 0.21684,-2.00783 0.67315,-4.01497 1.35988,-5.95827 0.86743,-2.45107 2.43963,-4.69442 4.43427,-6.43661 -1.48411,-5.84745 -0.0362,-11.81895 6.04941,-15.34072 2.93661,-1.70115 6.26402,-2.70575 9.71341,-3.1328"
       style="fill:#3771c8;fill-opacity:1;fill-rule:nonzero;stroke:none;stroke-width:0.0226947" />
    <path
       id="path19"
       d="m 75.456481,696.58108 c -3.73402,-4.03205 -8.2564,-6.24943 -12.20725,-5.86957 -3.88087,0.37371 -7.12242,3.24979 -8.83469,7.67492 4.46365,-2.31609 9.6095,-3.30039 14.59721,-2.71395 2.59552,0.30508 5.13456,1.03403 7.50867,2.13277 -0.3456,-0.42478 -0.70026,-0.83291 -1.06394,-1.22417"
       style="fill:#3771c8;fill-opacity:1;fill-rule:nonzero;stroke:none;stroke-width:0.0226947" />
    <path
       id="path20"
       d="m 80.213781,647.46808 c 2.78301,-1.60971 6.14657,-2.33021 9.26615,-1.58235 1.23787,0.29641 2.42155,0.84362 3.46066,1.58919 -0.0339,-0.0913 -0.0678,-0.18013 -0.10397,-0.26904 -0.38626,-0.97132 -0.89905,-1.90613 -1.5451,-2.72468 -0.65058,-0.82311 -1.43216,-1.52308 -2.35156,-2.01786 -2.29281,-1.23352 -5.18424,-0.9941 -7.4861,0.22117 -2.30183,1.21528 -4.06153,3.30153 -5.31977,5.59528 -0.88098,1.60972 -1.54058,3.32661 -2.13242,5.07086 1.67387,-2.35074 3.72724,-4.4484 6.21205,-5.88257 z m 2.67684,20.77434 c 1.55641,-1.77845 3.45841,-3.2484 5.64055,-4.11324 2.7988,-1.11016 6.07652,-1.1446 8.75108,0.24397 0.53312,0.27565 1.03459,0.61106 1.49541,0.98705 3.715939,-1.0306 8.010169,-0.0397 10.732169,2.75178 2.4487,2.51151 3.43358,6.28387 2.81689,9.73407 1.7665,-2.18112 2.60228,-5.12514 2.23635,-7.92733 -0.42694,-3.27737 -2.45319,-6.28477 -5.27233,-7.96767 -2.29282,-1.37033 -5.06454,-1.85598 -7.69845,-1.44558 -0.55117,-0.85274 -1.27403,-1.60059 -2.087249,-2.20025 -1.59932,-1.18107 -3.53522,-1.83317 -5.49146,-2.15466 -2.74009,-0.45145 -5.75576,-0.21432 -7.95821,1.48889 -0.11301,0.0868 -0.22138,0.1778 -0.32753,0.26905 -1.89525,1.6576 -2.83045,4.25755 -2.98856,6.79731 -0.0745,1.18359 -0.004,2.36374 0.15131,3.53661 z m -20.31455,-20.60333 c -1.32602,-1.01919 -2.54808,-2.17519 -3.63688,-3.4543 -4.80023,-5.64088 -6.85134,-13.50937 -5.63378,-20.82609 1.64903,-0.71138 3.44035,-1.10583 5.22943,-1.14459 5.24975,-6.12881 13.91951,-8.88541 21.82803,-6.38875 9.97996,3.14651 15.87802,13.65532 14.08216,23.66934 4.0932,0.1345 8.159269,1.63024 11.296919,4.30249 2.98178,2.54225 5.06452,6.0946 5.96809,9.92283 7.86333,-0.0109 16.68221,2.55367 19.59847,10.66202 1.82523,5.07885 0.71383,10.71356 -1.85457,15.42577 6.36114,-0.10762 12.82394,2.3325 16.90809,7.36733 1.18366,1.45924 2.0895,3.04868 2.72652,4.70901 -0.81772,1.08554 -1.75291,2.08285 -2.77848,2.97321 -2.75138,2.38791 -6.16462,4.00584 -9.76535,4.48443 -5.33784,0.70955 -10.91967,-1.10811 -14.94508,-4.68417 -3.00213,1.04039 -6.31372,1.18107 -9.34972,0.24054 -4.67598,-1.44806 -8.46194,-5.38299 -9.96866,-10.05073 -2.821399,2.48276 -6.273039,4.24205 -9.952849,4.95594 -6.73838,1.30739 -14.05278,-0.92958 -18.9411,-5.79204 -2.76042,-2.74771 -4.70312,-6.29026 -5.65412,-10.08243 -1.17237,-0.46332 -2.30635,-1.0233 -3.38162,-1.69456 -3.51264,-2.19364 -6.34984,-5.67233 -7.21953,-9.74726 -0.7703,-3.59816 0.0473,-7.45146 1.92686,-10.60935 0.94424,-1.58692 2.14599,-3.00514 3.51717,-4.23864"
       style="fill:#3771c8;fill-opacity:1;fill-rule:nonzero;stroke:none;stroke-width:0.0226947" />
    <path
       id="path7"
       d="m 101.8474,181.90425 c 0.75192,-0.68388 1.6394,-1.05665 2.53281,-0.96836 0.24536,0.0238 0.49171,0.0827 0.73115,0.17517 1.02302,-2.54633 2.74849,-4.5405 4.7599,-5.20897 1.78879,-0.5928 3.75765,-0.0449 5.2536,1.43082 0.003,-0.0112 0.007,-0.0224 0.0114,-0.0336 2.47938,-7.03639 11.50252,-10.60573 15.76872,-4.99035 0.44026,-5.20757 2.11924,-10.33526 4.97558,-13.73364 2.35571,-2.80279 5.53161,-4.20418 8.56009,-3.66605 2.49028,-5.1431 8.79459,-4.74511 12.01008,-1.19398 0.96662,1.06786 1.73834,2.52952 2.13013,4.16073 1.66909,-0.65445 3.56869,-0.0617 4.93106,1.48268 1.59191,1.80359 2.44278,4.76473 2.36461,7.65019 -0.0397,1.48828 -0.31362,2.94713 -0.76677,4.29246 1.70965,0.86046 3.23528,2.46505 4.27016,4.57835 0.84295,1.72371 1.34753,3.75993 1.49099,5.84661 2.27953,3.09007 3.4193,8.53727 1.33962,12.21732 -2.00151,3.53993 -6.66147,4.87965 -9.58509,2.65004 -1.08734,1.18978 -2.38738,2.0124 -3.72799,2.36135 -2.95627,0.77216 -6.02629,-0.4975 -8.55812,-2.69629 -3.3619,2.74393 -8.30385,2.37958 -11.64498,0.47649 -1.84519,-1.05106 -3.5212,-2.7103 -4.72429,-4.95252 -2.20037,4.51668 -6.51407,6.98454 -9.99271,8.49382 -4.84401,2.10209 -12.44342,2.14975 -15.23742,-5.20476 -0.12367,-0.32652 -0.22459,-0.67687 -0.29483,-1.03564 -0.78063,0.51712 -1.62159,0.84083 -2.48137,0.91932 -1.8254,0.16678 -3.7161,-0.83242 -4.91721,-2.78596 -1.201095,-1.95354 -1.631475,-4.85442 -0.96068,-7.26481 0.34132,-1.23043 0.97849,-2.28568 1.76207,-3.00039"
       style="fill:#214478;fill-opacity:1;fill-rule:nonzero;stroke:none;stroke-width:0.0117751" />
    <path
       id="path8"
       d="m 141.99242,186.56107 c 0.32848,0.55355 0.57879,1.20099 0.71928,1.89888 0.21073,1.04544 0.17116,2.18337 -0.0891,3.205 0.52833,-0.5858 0.9775,-1.29909 1.28619,-2.13994 0.5679,-1.54433 0.54019,-3.52449 -0.19491,-4.97494 -0.76083,-1.50369 -2.06483,-1.98017 -3.31837,-1.91149 -0.43038,-0.95015 -1.1279,-1.66346 -1.91248,-1.87366 -0.96266,-0.25786 -1.99854,0.25504 -2.67329,1.24723 0.26514,-0.0435 0.53327,-0.028 0.79447,0.0519 0.84987,0.26067 1.58103,1.19259 1.85212,2.36135 0.0278,0.12053 0.0505,0.24244 0.0653,0.36716 0.59165,-0.15554 1.20902,-0.1121 1.78187,0.14716 0.65695,0.29708 1.24463,0.87446 1.68887,1.62141"
       style="fill:#3771c8;fill-opacity:1;fill-rule:nonzero;stroke:none;stroke-width:0.0117751" />
    <path
       id="path9"
       d="m 467.46933,196.29972 c 0.01,0.49725 -0.0173,1.00354 -0.0747,1.50623 -1.11844,-2.0939 -3.12136,-3.62908 -5.32669,-3.99071 -1.8403,-0.30197 -3.76686,0.2206 -5.30515,1.35616 -0.54263,-1.06504 -1.29268,-2.00169 -2.2037,-2.7087 -1.48186,-1.15364 -3.35366,-1.66897 -5.16575,-1.4972 1.9133,-1.91669 4.42897,-3.21318 7.03921,-2.31088 1.03216,0.35622 1.99132,1.12289 2.59701,2.12464 1.55984,-0.3978 3.2126,-0.60033 4.75419,-0.14104 2.60861,0.77753 3.63247,3.12096 3.68557,5.66148"
       style="fill:#3771c8;fill-opacity:1;fill-rule:nonzero;stroke:none;stroke-width:0.0173222" />
    <path
       id="path10"
       d="m 149.8006,169.75138 c 2.02822,0.65585 3.01364,2.79438 3.47073,5.30147 1.8996,0.0308 3.91696,0.71751 4.378,3.65062 0.12764,0.8128 0.10587,1.64663 0.007,2.47065 1.2298,-1.15755 2.02625,-3.24002 1.96689,-5.34071 -0.0702,-2.5225 -1.37227,-4.88104 -3.08291,-5.59015 -0.29879,-0.12331 -0.6045,-0.19899 -0.91023,-0.23963 -1.32377,-4.90908 -6.20736,-7.73989 -9.42184,-4.9329 -0.5125,0.44705 -0.94783,1.01321 -1.304,1.65925 -0.746,1.35234 -1.15263,3.06064 -1.22881,4.79696 1.71657,-1.69848 4.12075,-2.42441 6.12523,-1.77556 z m -47.9532,12.15287 c 0.75192,-0.68388 1.6394,-1.05665 2.53281,-0.96836 0.24536,0.0238 0.49171,0.0827 0.73115,0.17517 1.02302,-2.54633 2.74849,-4.5405 4.7599,-5.20897 1.78879,-0.5928 3.75765,-0.0449 5.25261,1.43082 0.003,-0.0112 0.008,-0.0224 0.0119,-0.0336 2.47938,-7.03639 11.50251,-10.60573 15.76872,-4.99035 0.44026,-5.20757 2.11924,-10.33526 4.97557,-13.73364 2.35571,-2.80279 5.53162,-4.20558 8.5601,-3.66605 2.49027,-5.1431 8.79459,-4.74511 12.01007,-1.19398 0.96662,1.06786 1.73834,2.52811 2.13013,4.16073 1.66909,-0.65445 3.56869,-0.0617 4.93107,1.48268 1.59191,1.80359 2.44277,4.76473 2.36461,7.65019 -0.0395,1.48828 -0.31363,2.94713 -0.76677,4.29246 1.70964,0.86046 3.23527,2.46505 4.27016,4.57835 0.2978,0.6096 0.55405,1.25845 0.76677,1.93533 0.38783,1.23602 0.63221,2.56314 0.72422,3.91128 1.2209,1.65504 2.11431,3.98555 2.36263,6.35811 -1.04279,0.78478 -2.23994,1.16175 -3.4173,1.02161 -1.32083,-0.15695 -2.58921,-0.95855 -3.57957,-2.19598 -0.36905,0.51993 -0.80437,0.95015 -1.26444,1.24724 -0.88945,0.57458 -1.85012,0.75395 -2.8217,0.72452 -1.54046,3.61559 -5.53063,4.13691 -8.11786,2.96675 -1.37424,-0.62082 -2.62382,-1.83443 -3.53306,-3.44462 -1.00126,-1.77556 -1.54541,-4.04021 -1.97084,-6.21238 -1.26344,0.14295 -2.53281,0.0211 -3.75667,-0.45124 -2.10639,-0.81141 -4.04655,-2.78597 -5.06661,-5.47803 -1.45043,-0.20601 -2.8781,-0.78899 -4.17913,-1.73073 -0.45016,-0.32653 -0.8855,-0.69509 -1.29905,-1.1015 -0.12169,1.67887 -0.42544,3.30169 -1.04479,4.73671 -1.23573,2.86025 -3.63696,4.52229 -6.00355,4.49848 -2.02427,-0.0211 -3.99016,-1.18559 -5.55833,-3.013 -0.77666,0.73713 -1.63544,1.3089 -2.53676,1.67606 -1.38612,0.56617 -2.86821,0.64744 -4.28303,0.24946 -1.44251,2.98775 -4.05051,4.78854 -6.63377,4.80116 -2.5249,0.0126 -4.96768,-1.5149 -6.88114,-3.87204 0.17612,-0.22003 0.36508,-0.42183 0.56197,-0.60261"
       style="fill:#3771c8;fill-opacity:1;fill-rule:nonzero;stroke:none;stroke-width:0.0117751" />
    <path
       id="path5"
       d="m 148.96423,740.22648 c 3.28133,-3.01047 7.35798,-5.38727 11.63487,-6.6669 4.25115,-1.27469 8.85418,-1.6248 13.31418,-1.09224 -0.53498,-8.4199 6.39101,-16.02124 15.31385,-19.52234 6.99179,-2.7417 14.86186,-3.16824 22.41723,-2.10312 -0.70089,-5.71025 -0.10304,-11.59555 3.28993,-16.63269 3.85062,-5.71271 9.43491,-7.82077 15.56846,-8.00077 -0.21741,-4.39856 1.75081,-8.97958 4.96921,-12.49547 7.61545,-8.31881 22.05677,-11.35886 33.26251,-6.99973 8.80269,3.42219 14.95342,11.14681 16.1292,19.35713 15.16224,4.13475 16.95882,23.47711 13.39141,36.06135 6.20507,6.97261 10.24738,15.50593 8.94,24.37456 -1.50193,10.16306 -9.98132,18.61255 -21.15562,21.87448 -4.29978,1.2525 -8.79696,1.88863 -13.33704,2.12285 -3.2842,1.62235 -6.92315,2.77377 -10.45909,3.43454 -17.97155,3.35563 -37.89129,0.45614 -54.81007,-6.09487 -13.33419,7.79611 -34.5556,12.70011 -45.03471,1.62727 -5.36973,-0.25395 -10.73372,-1.11937 -14.90191,-4.18159 -4.83476,-3.55042 -6.9403,-9.13492 -5.44982,-14.45561 1.08423,-3.86353 3.59316,-7.55942 6.91741,-10.60685"
       style="fill:#214478;fill-opacity:1;fill-rule:nonzero;stroke:none;stroke-width:0.0265584" />
    <path
       id="path6"
       d="m 253.14662,763.13808 c 0.53211,-0.13806 1.05564,-0.29094 1.57344,-0.45613 4.86908,-1.5533 9.166,-4.24322 12.71054,-7.51997 4.96348,2.09327 10.51344,3.1584 16.03764,3.01539 6.08778,-0.15779 12.10118,-1.78506 17.2449,-4.59334 1.02416,-8.63441 -2.97236,-16.92363 -9.02582,-23.72612 3.56741,-12.58425 1.77083,-31.9266 -13.39141,-36.06135 -1.17579,-8.21032 -7.32651,-15.93494 -16.12919,-19.35713 -7.16058,-2.78364 -15.63998,-2.5494 -22.81774,0.15286 -1.99398,3.02278 -3.18406,6.44252 -3.34141,9.91896 -0.21457,4.73142 1.48761,9.47763 4.60588,13.37075 -4.25114,1.84178 -7.91298,4.71909 -10.33606,8.26211 -3.2184,4.70184 -4.18821,10.48605 -2.77211,15.79686 -4.93774,0.0716 -9.85832,0.8235 -14.4213,2.44831 -6.78009,2.41379 -12.70768,6.85181 -15.72296,12.61629 -3.38146,6.46717 -3.02673,16.4034 3.73907,21.30988 3.38719,2.4557 8.00738,2.86744 12.2671,2.82553 5.36687,-0.0542 10.65934,-1.60508 14.82181,-4.53663 1.98254,2.47296 4.76894,4.49965 7.94159,5.76448 5.26959,2.10313 11.44319,2.21408 17.01603,0.76925"
       style="fill:#3771c8;fill-opacity:1;fill-rule:nonzero;stroke:none;stroke-width:0.0265584" />
    <path
       sodipodi:type="star"
       style="fill:#3771c8;fill-opacity:1;stroke-width:0.264583"
       id="path1"
       inkscape:flatsided="false"
       sodipodi:sides="4"
       sodipodi:cx="114.74541"
       sodipodi:cy="78.458405"
       sodipodi:r1="10.097234"
       sodipodi:r2="5.0486169"
       sodipodi:arg1="1.0636978"
       sodipodi:arg2="1.849096"
       inkscape:rounded="0"
       inkscape:randomized="0"
       d="m 119.64906,87.284975 -6.29061,-3.972204 -7.43961,0.04928 3.9722,-6.290612 -0.0493,-7.439609 6.29061,3.972205 7.43961,-0.04928 -3.97221,6.290612 z"
       transform="translate(-131.81927,14.646585)" />
    <path
       sodipodi:type="star"
       style="fill:#3771c8;fill-opacity:1;stroke-width:0.264583"
       id="path2"
       inkscape:flatsided="false"
       sodipodi:sides="4"
       sodipodi:cx="92.188622"
       sodipodi:cy="88.265701"
       sodipodi:r1="5.8843803"
       sodipodi:r2="2.9421899"
       sodipodi:arg1="1.5707963"
       sodipodi:arg2="2.3561945"
       inkscape:rounded="0"
       inkscape:randomized="0"
       d="m 92.188622,94.150082 -2.080443,-3.803938 -3.803938,-2.080443 3.803938,-2.080442 2.080442,-3.803938 2.080443,3.803938 3.803938,2.080442 -3.803938,2.080443 z"
       transform="translate(-131.81927,14.646585)" />
    <path
       sodipodi:type="star"
       style="fill:#3771c8;fill-opacity:1;stroke-width:0.264583"
       id="path3"
       inkscape:flatsided="false"
       sodipodi:sides="4"
       sodipodi:cx="93.16935"
       sodipodi:cy="66.689644"
       sodipodi:r1="4.9036503"
       sodipodi:r2="2.4518249"
       sodipodi:arg1="0.92729522"
       sodipodi:arg2="1.7126934"
       inkscape:rounded="0"
       inkscape:randomized="0"
       d="m 96.11154,70.612564 -3.288931,-1.495737 -3.57618,0.515007 1.495738,-3.288931 -0.515007,-3.576179 3.28893,1.495737 3.57618,-0.515007 -1.495738,3.28893 z"
       transform="translate(-131.81927,14.646585)" />
    <path
       sodipodi:type="star"
       style="fill:#3771c8;fill-opacity:1;stroke-width:0.264583"
       id="path4"
       inkscape:flatsided="false"
       sodipodi:sides="4"
       sodipodi:cx="266.75858"
       sodipodi:cy="241.25958"
       sodipodi:r1="6.9348087"
       sodipodi:r2="3.4674041"
       sodipodi:arg1="-0.14189705"
       sodipodi:arg2="0.64350111"
       inkscape:rounded="0"
       inkscape:randomized="0"
       d="m 273.62369,240.27885 -4.09119,3.06117 -1.79319,4.78467 -3.06118,-4.09118 -4.78466,-1.7932 4.09118,-3.06117 1.7932,-4.78467 3.06117,4.09119 z"
       transform="translate(-131.81927,14.646585)" />
    <path
       sodipodi:type="star"
       style="fill:#3771c8;fill-opacity:1;stroke-width:0.264583"
       id="path11"
       inkscape:flatsided="false"
       sodipodi:sides="4"
       sodipodi:cx="252.04762"
       sodipodi:cy="225.56792"
       sodipodi:r1="9.8073006"
       sodipodi:r2="4.9036498"
       sodipodi:arg1="0"
       sodipodi:arg2="0.78539816"
       inkscape:rounded="0"
       inkscape:randomized="0"
       d="m 261.85492,225.56792 -6.33989,3.4674 -3.46741,6.3399 -3.4674,-6.3399 -6.3399,-3.4674 6.3399,-3.46741 3.4674,-6.33989 3.46741,6.33989 z"
       transform="translate(-131.81927,14.646585)" />
    <path
       sodipodi:type="star"
       style="fill:#3771c8;fill-opacity:1;stroke-width:0.264583"
       id="path12"
       inkscape:flatsided="false"
       sodipodi:sides="4"
       sodipodi:cx="718.87512"
       sodipodi:cy="287.35391"
       sodipodi:r1="13.765202"
       sodipodi:r2="6.8826008"
       sodipodi:arg1="1.6421038"
       sodipodi:arg2="2.427502"
       inkscape:rounded="0"
       inkscape:randomized="0"
       d="m 717.89439,301.08413 -4.22037,-9.22259 -8.52912,-5.48836 9.2226,-4.22037 5.48835,-8.52912 4.22038,9.2226 8.52911,5.48835 -9.22259,4.22038 z"
       transform="matrix(0.63891807,0,0,0.62852443,-197.80161,414.3602)" />
    <path
       sodipodi:type="star"
       style="fill:#3771c8;fill-opacity:1;stroke-width:0.264583"
       id="path13"
       inkscape:flatsided="false"
       sodipodi:sides="4"
       sodipodi:cx="697.29907"
       sodipodi:cy="304.02631"
       sodipodi:r1="6.9348087"
       sodipodi:r2="3.4674041"
       sodipodi:arg1="0.14189705"
       sodipodi:arg2="0.92729522"
       inkscape:rounded="0"
       inkscape:randomized="0"
       d="m 704.16418,305.00704 -4.78467,1.79319 -3.06117,4.09119 -1.79319,-4.78467 -4.09119,-3.06117 4.78467,-1.7932 3.06117,-4.09118 1.7932,4.78466 z"
       transform="matrix(0.63891807,0,0,0.62852443,-197.80161,414.3602)" />
    <path
       sodipodi:type="star"
       style="fill:#3771c8;fill-opacity:1;stroke-width:0.264583"
       id="path14"
       inkscape:flatsided="false"
       sodipodi:sides="4"
       sodipodi:cx="691.41467"
       sodipodi:cy="274.6044"
       sodipodi:r1="9.0418844"
       sodipodi:r2="4.5209417"
       sodipodi:arg1="0.70862627"
       sodipodi:arg2="1.4940244"
       inkscape:rounded="0"
       inkscape:randomized="0"
       d="m 698.27978,280.48878 -6.51837,-1.37675 -6.23112,2.35748 1.37676,-6.51837 -2.35749,-6.23112 6.51837,1.37676 6.23112,-2.35749 -1.37675,6.51837 z"
       transform="matrix(0.63891807,0,0,0.62852443,-197.80161,414.3602)" />
    <path
       sodipodi:type="star"
       style="fill:#3771c8;fill-opacity:1;stroke-width:0.264583"
       id="path21"
       inkscape:flatsided="false"
       sodipodi:sides="4"
       sodipodi:cx="396.21494"
       sodipodi:cy="358.9472"
       sodipodi:r1="15.813797"
       sodipodi:r2="7.906898"
       sodipodi:arg1="0.12435499"
       sodipodi:arg2="0.90975316"
       inkscape:rounded="0"
       inkscape:randomized="0"
       d="m 411.90662,360.90866 -10.83732,4.27987 -6.81582,9.45036 -4.27987,-10.83732 -9.45036,-6.81583 10.83732,-4.27986 6.81583,-9.45036 4.27986,10.83732 z"
       transform="translate(-131.81927,14.646585)" />
    <path
       sodipodi:type="star"
       style="fill:#3771c8;fill-opacity:1;stroke-width:0.264583"
       id="path22"
       inkscape:flatsided="false"
       sodipodi:sides="4"
       sodipodi:cx="413.86807"
       sodipodi:cy="376.60034"
       sodipodi:r1="4.9036503"
       sodipodi:r2="2.4518249"
       sodipodi:arg1="0"
       sodipodi:arg2="0.78539816"
       inkscape:rounded="0"
       inkscape:randomized="0"
       d="m 418.77172,376.60034 -3.16995,1.7337 -1.7337,3.16995 -1.7337,-3.16995 -3.16995,-1.7337 3.16995,-1.7337 1.7337,-3.16995 1.7337,3.16995 z"
       transform="translate(-131.81927,14.646585)" />
    <path
       sodipodi:type="star"
       style="fill:#3771c8;fill-opacity:1;stroke-width:0.264583"
       id="path23"
       inkscape:flatsided="false"
       sodipodi:sides="4"
       sodipodi:cx="492.32648"
       sodipodi:cy="134.36002"
       sodipodi:r1="7.6597462"
       sodipodi:r2="3.8298728"
       sodipodi:arg1="0.69473828"
       sodipodi:arg2="1.4801364"
       inkscape:rounded="0"
       inkscape:randomized="0"
       d="m 498.21086,139.26367 -5.53764,-1.08951 -5.25039,2.07024 1.0895,-5.53764 -2.07023,-5.25039 5.53764,1.0895 5.25039,-2.07023 -1.08951,5.53764 z"
       transform="translate(-131.81927,14.646585)" />
    <path
       sodipodi:type="star"
       style="fill:#3771c8;fill-opacity:1;stroke-width:0.264583"
       id="path28"
       inkscape:flatsided="false"
       sodipodi:sides="4"
       sodipodi:cx="489.38428"
       sodipodi:cy="147.1095"
       sodipodi:r1="8.3793612"
       sodipodi:r2="4.1896801"
       sodipodi:arg1="0.35877067"
       sodipodi:arg2="1.1441688"
       inkscape:rounded="0"
       inkscape:randomized="0"
       d="m 497.23012,150.05169 -6.11214,0.87195 -4.67589,4.0317 -0.87196,-6.11214 -4.03169,-4.67589 6.11214,-0.87196 4.67589,-4.03169 0.87195,6.11213 z"
       transform="translate(-131.81927,14.646585)" />
    <path
       sodipodi:type="star"
       style="fill:#3771c8;fill-opacity:1;stroke-width:0.264583"
       id="path29"
       inkscape:flatsided="false"
       sodipodi:sides="4"
       sodipodi:cx="514.88324"
       sodipodi:cy="130.43709"
       sodipodi:r1="5.8843803"
       sodipodi:r2="2.9421899"
       sodipodi:arg1="0"
       sodipodi:arg2="0.78539816"
       inkscape:rounded="0"
       inkscape:randomized="0"
       d="m 520.76762,130.43709 -3.80394,2.08044 -2.08044,3.80394 -2.08044,-3.80394 -3.80394,-2.08044 3.80394,-2.08044 2.08044,-3.80394 2.08044,3.80394 z"
       transform="translate(-131.81927,14.646585)" />
    <path
       sodipodi:type="star"
       style="fill:#3771c8;fill-opacity:1;stroke-width:0.264583"
       id="path30"
       inkscape:flatsided="false"
       sodipodi:sides="4"
       sodipodi:cx="703.18341"
       sodipodi:cy="87.284973"
       sodipodi:r1="8.087307"
       sodipodi:r2="4.043653"
       sodipodi:arg1="0.24497866"
       sodipodi:arg2="1.0303768"
       inkscape:rounded="0"
       inkscape:randomized="0"
       d="m 711.02925,89.246433 -5.7654,1.505944 -4.0419,4.378436 -1.50594,-5.765397 -4.37844,-4.041903 5.7654,-1.505944 4.0419,-4.378436 1.50594,5.765398 z" />
    <path
       sodipodi:type="star"
       style="fill:#3771c8;fill-opacity:1;stroke-width:0.264583"
       id="path31"
       inkscape:flatsided="false"
       sodipodi:sides="4"
       sodipodi:cx="40.20993"
       sodipodi:cy="290.29608"
       sodipodi:r1="6.8651104"
       sodipodi:r2="3.432555"
       sodipodi:arg1="0"
       sodipodi:arg2="0.78539816"
       inkscape:rounded="0"
       inkscape:randomized="0"
       d="m 47.075041,290.29608 -4.437928,2.42718 -2.427183,4.43793 -2.427182,-4.43793 -4.437928,-2.42718 4.437928,-2.42718 2.427182,-4.43793 2.427183,4.43793 z"
       transform="translate(-131.81927,14.646585)" />
    <path
       sodipodi:type="star"
       style="fill:#3771c8;fill-opacity:1;stroke-width:0.264583"
       id="path32"
       inkscape:flatsided="false"
       sodipodi:sides="4"
       sodipodi:cx="28.441172"
       sodipodi:cy="278.52734"
       sodipodi:r1="5.5478468"
       sodipodi:r2="2.7739234"
       sodipodi:arg1="0.78539816"
       sodipodi:arg2="1.5707963"
       inkscape:rounded="0"
       inkscape:randomized="0"
       d="m 32.364092,282.45026 -3.92292,-1.14899 -3.92292,1.14899 1.148996,-3.92292 -1.148996,-3.92292 3.92292,1.149 3.92292,-1.149 -1.148997,3.92292 z"
       transform="translate(-131.81927,14.646585)" />
  </g>
</svg>
