<?xml version="1.0" encoding="UTF-8" standalone="no"?>
<!-- Created with Inkscape (http://www.inkscape.org/) -->

<svg
   width="1500"
   height="1122.5197"
   viewBox="0 0 396.87499 296.99999"
   version="1.1"
   id="svg1"
   inkscape:version="1.4.3 (0d15f75, 2025-12-25)"
   sodipodi:docname="drawing.svg"
   xmlns:inkscape="http://www.inkscape.org/namespaces/inkscape"
   xmlns:sodipodi="http://sodipodi.sourceforge.net/DTD/sodipodi-0.dtd"
   xmlns="http://www.w3.org/2000/svg"
   xmlns:svg="http://www.w3.org/2000/svg">
  <sodipodi:namedview
     id="namedview1"
     pagecolor="#ffffff"
     bordercolor="#000000"
     borderopacity="0.25"
     inkscape:showpageshadow="2"
     inkscape:pageopacity="0.0"
     inkscape:pagecheckerboard="true"
     inkscape:deskcolor="#d1d1d1"
     inkscape:document-units="mm"
     inkscape:zoom="0.34510296"
     inkscape:cx="773.68215"
     inkscape:cy="598.37215"
     inkscape:window-width="985"
     inkscape:window-height="630"
     inkscape:window-x="1"
     inkscape:window-y="30"
     inkscape:window-maximized="0"
     inkscape:current-layer="layer1" />
  <defs
     id="defs1" />
  <g
     inkscape:label="Layer 1"
     inkscape:groupmode="layer"
     id="layer1">
    <path
       id="path15"
       d="m 205.16085,239.51988 c 13.05737,-1.56986 26.42976,0.92781 35.53919,10.39989 10.65001,-5.31636 24.63412,-5.4998 31.30585,6.0325 2.30893,3.99345 2.91148,8.5725 2.83105,13.23975 5.23875,-1.87325 10.78088,-2.80458 15.94837,-0.0388 5.9302,3.17148 8.41375,9.88484 7.15787,16.31598 -1.54164,7.89164 -8.3686,13.51492 -15.75718,15.875 -13.15967,4.20511 -30.7982,1.17123 -43.14049,-5.69736 -12.1285,9.78253 -29.76386,8.59367 -44.1258,2.35656 -3.30412,3.56305 -7.84331,6.04308 -12.65732,7.43655 -5.57212,1.6122 -11.1887,1.73214 -16.79963,1.19239 -0.13546,0.889 -0.34149,1.77095 -0.62653,2.63878 -1.49049,4.54378 -5.06166,8.23031 -9.277,10.49161 -4.21569,2.25778 -9.03746,3.19616 -13.81619,3.40078 -6.26815,0.26811 -12.58429,-0.69497 -18.49684,-2.79047 -5.71959,4.47675 -12.94977,7.05203 -20.23146,7.06966 -9.119305,0.0211 -18.176525,-3.9758 -24.308855,-10.72444 -3.46393,-3.81353 -5.96371,-8.4702 -7.32261,-13.43731 -5.76051,2.38478 -11.8043,4.064 -18.00014,4.69195 -9.03746,0.91722 -18.41888,-0.48684 -26.42411,-4.78014 -4.63586,-2.48708 -8.77112,-5.98311 -11.92989,-10.17765 -8.6733899,4.60376 -19.2796599,6.31473 -28.535488,3.30906 -8.12447,-2.63878 -13.42249,-11.07017 -10.95234,-19.55447 0.3676,-1.26295 0.9084,-2.46592 1.59914,-3.57717 -2.41406,-4.07811 -1.96144,-9.61319 0.38771,-13.68425 7.02803,-12.17083 25.4994781,-14.29103 37.715468,-11.19011 6.00781,1.52753 11.65613,4.42736 16.42251,8.38905 5.16784,-4.31094 10.85568,-8.03275 17.38666,-9.34155 4.10139,-0.82197 8.38376,-0.56797 12.38814,0.60678 5.29978,-5.5492 12.6866,-9.12284 20.35669,-9.63084 6.20713,-0.40922 12.49398,1.19945 17.83715,4.37445 7.762535,-6.67103 16.468725,-12.37898 26.445635,-14.91192 12.0135,-3.048 25.17952,-1.70392 36.15444,4.13455 7.03333,3.74298 13.09934,9.23925 17.62654,15.79387 2.49908,-1.36878 5.06977,-2.59998 7.71913,-3.66184 5.48358,-2.20486 11.49774,-3.81705 17.58033,-4.55083"
       style="fill:#c7ebfa;fill-opacity:1;fill-rule:nonzero;stroke:none;stroke-width:0.0352778" />
    <path
       id="path16"
       d="m 42.275575,280.047 c 1.43757,-2.21192 3.80012,-3.88761 6.34436,-4.71311 2.2546,-0.73378 4.62809,-0.90311 7.00405,-0.762 2.44898,-2.92453 5.95736,-4.76603 9.95362,-4.62492 3.04024,0.10936 5.8607,1.43933 7.55298,3.74297 0.10936,-1.64394 -0.29634,-3.3408 -1.13101,-4.78014 -0.23777,-0.41275 -0.51047,-0.8008 -0.81597,-1.16416 -2.07575,-2.45887 -5.44548,-3.64067 -8.654,-3.39725 -2.37454,0.17991 -4.64749,1.0795 -6.62269,2.42358 -3.87915,-1.63689 -8.67552,-0.57503 -11.38344,2.81164 -2.29658,2.87161 -2.73579,6.75922 -2.2479,10.46339 z m 85.819195,-28.29631 c 3.0099,0.59619 5.91962,1.95086 8.01794,4.06753 7.82285,-2.34245 16.73295,0.2293 21.94172,7.05908 2.39501,3.13972 4.07599,6.76981 5.2899,10.541 0.27799,-2.80458 0.37571,-5.61269 0.12065,-8.41728 -0.006,-0.06 -0.0113,-0.11994 -0.0173,-0.17991 -0.5588,-5.78909 -2.83033,-11.64873 -7.32437,-15.34231 -4.53284,-3.72533 -10.70081,-4.72722 -16.58797,-3.90525 -3.46921,-3.72533 -9.72573,-5.08705 -14.4212,-3.49955 -5.53226,1.86972 -9.65129,6.72041 -12.30241,11.96269 4.8334,-2.07433 10.01429,-3.33375 15.28303,-2.286 z m 82.54507,19.33575 c 2.18828,-3.15383 5.9944,-5.1823 9.86543,-5.65503 3.84175,-0.46919 7.71137,0.38453 11.31641,1.86267 1.66405,-1.05833 3.61421,-1.72508 5.5753,-1.93322 3.3214,-0.35631 6.65621,0.42333 9.75713,1.7145 -1.64218,-1.97556 -3.36268,-3.89114 -5.40138,-5.45042 -2.60139,-1.98614 -5.81237,-3.36197 -9.07909,-3.1503 -2.20592,0.14111 -4.40337,1.12536 -5.9048,2.70933 -2.24296,-0.53622 -4.56424,-0.73025 -6.83366,-0.37395 -3.01483,0.47625 -5.93195,2.01084 -7.69725,4.49792 -0.48543,0.68439 -0.87101,1.44639 -1.14442,2.24367 -0.39017,1.13594 -0.5528,2.3495 -0.45367,3.53483 z M -2.4901649,247.58438 c 6.13199,-0.96308 12.5059799,-0.59266 17.7337899,0.73378 6.00781,1.52753 11.65613,4.42736 16.42251,8.38906 5.16784,-4.31095 10.85568,-8.03275 17.38666,-9.34156 4.10139,-0.82197 8.38376,-0.56797 12.38779,0.60678 5.29978,-5.54919 12.68695,-9.12283 20.35704,-9.63083 6.20713,-0.40923 12.49398,1.19944 17.83715,4.37444 7.762535,-6.67103 16.468725,-12.37897 26.445635,-14.91192 12.0135,-3.048 25.17952,-1.70391 36.15444,4.13456 7.03333,3.74297 13.09934,9.23925 17.62654,15.79386 2.49908,-1.36878 5.06977,-2.59997 7.71913,-3.66183 5.48358,-2.20486 11.49774,-3.81706 17.58033,-4.55084 13.05737,-1.56986 26.42976,0.92781 35.53954,10.39989 10.65001,-5.31636 24.63377,-5.4998 31.3055,6.0325 2.30893,3.99345 2.91148,8.5725 2.83105,13.23975 5.23875,-1.87325 10.78088,-2.80458 15.94837,-0.0388 5.5492,2.97039 8.08214,9.0417 7.35189,15.08478 -0.0494,0.40923 -0.11641,0.82198 -0.19402,1.2312 -0.35984,1.83444 -1.00189,3.54541 -1.87325,5.1188 -4.34623,1.41464 -9.22691,1.63336 -13.64016,1.40406 -8.02569,-0.41275 -16.36042,-2.30011 -22.99159,-7.04497 -2.29305,-1.64042 -4.2873,-3.62303 -5.87375,-5.88081 -2.83139,2.26131 -6.46959,3.52425 -10.08732,3.22086 -3.37997,-0.28222 -6.55003,-1.91558 -8.91152,-4.32153 -6.5585,9.89895 -23.1454,12.2167 -33.78553,6.56873 -3.38632,-1.79917 -6.35459,-4.40267 -8.30122,-7.69762 -2.97321,4.52614 -8.66775,7.77523 -13.21223,9.62378 -8.09696,3.29495 -17.11043,3.65125 -25.74326,2.6282 -1.84467,1.54869 -4.01461,2.69169 -6.46501,3.37255 -11.97116,3.33729 -27.85992,-0.10583 -34.54117,-11.20422 -5.00803,1.98614 -10.4507,2.4765 -15.677455,0.381 -2.64407,-1.06186 -5.02179,-2.73403 -6.74264,-4.84717 -5.22464,7.7717 -18.16594,12.96459 -25.56334,8.0257 -11.20563,7.12611 -26.44634,10.66448 -37.4777,1.32292 -3.1055,-2.63173 -5.47158,-6.11012 -6.57472,-9.95187 -4.826,1.58398 -9.89083,2.70934 -14.8815799,1.57339 -14.573248,-3.31258 -12.921888,-18.94769 -8.0899,-30.17661"
       style="fill:#ffffff;fill-opacity:1;fill-rule:nonzero;stroke:none;stroke-width:0.0352778" />
    <path
       id="path24"
       d="m 138.78118,59.046518 c 0.17996,0.576793 0.42726,1.128618 0.74312,1.637087 1.18997,1.918259 3.27976,3.102061 5.41362,3.237389 1.22058,3.038992 4.21019,5.334332 7.10798,6.319737 4.35465,1.479421 9.87846,1.353291 13.52916,-1.831541 2.53297,3.659142 5.82742,6.159442 10.0119,7.440472 4.21264,1.29022 8.85131,1.21533 12.94642,-0.52161 1.95022,-0.82774 4.00941,-2.24147 4.75987,-4.22936 2.93942,-0.0132 5.86292,-0.752852 8.05678,-2.981183 2.28934,-2.325559 3.09489,-6.615358 1.23526,-9.260189 0.52398,-1.86176 0.29627,-3.990237 -0.55458,-5.733748 -1.15202,-2.362348 -3.30057,-4.046735 -5.64378,-4.929659 -1.85841,-0.701609 -3.8368,-0.93942 -5.81273,-0.930223 -0.57785,-2.497676 -2.82189,-4.40148 -5.22999,-5.30674 -3.2063,-1.204823 -6.86803,-0.78307 -10.09759,0.540002 -2.24282,-1.005114 -4.77334,-1.275772 -7.14961,-0.721317 -2.21099,0.515039 -4.2665,1.738256 -5.87149,3.444979 -1.89391,-1.305991 -5.09409,-1.328327 -6.92434,-1.270516 -3.84292,0.120876 -8.11799,1.537233 -10.01068,5.313309 -1.94043,0.01314 -3.88821,0.865844 -5.18224,2.428041 -1.62335,1.957673 -2.09591,4.883671 -1.32708,7.35507"
       style="fill:#c7ebfa;fill-opacity:1;fill-rule:nonzero;stroke:none;stroke-width:0.0126827" />
    <path
       id="path25"
       d="m 160.37201,52.85554 c 0.83249,-0.170803 1.68457,-0.228613 2.53052,-0.170803 0.90962,-0.885552 2.04572,-1.507014 3.2516,-1.761906 1.15447,-0.241753 2.36647,-0.14584 3.48054,0.258833 -0.19221,-0.294308 -0.41135,-0.570222 -0.65008,-0.822485 -0.73455,-0.772559 -1.66987,-1.329641 -2.68232,-1.539862 -1.65519,-0.342921 -3.44136,0.25752 -4.65949,1.499132 -1.10305,-0.247009 -2.29546,-0.06701 -3.26752,0.550513 -1.2928,0.821172 -2.13876,2.380743 -2.21466,3.984981 1.23894,-0.994604 2.6909,-1.685701 4.21141,-1.998403 z m 12.04905,4.514475 c 0.10773,-0.273287 0.23383,-0.538689 0.37217,-0.79621 1.46665,-0.541315 2.9639,-1.035334 4.5089,-1.0419 1.22914,-0.0053 2.50971,0.356057 3.48788,1.123363 1.31117,-0.273287 2.70314,-0.122193 3.92249,0.466425 1.49848,0.721317 2.71049,2.087747 3.34342,3.71038 0.18241,-1.010369 0.22404,-2.036503 -0.0673,-3.004832 -0.43461,-1.446575 -1.58785,-2.569937 -2.91248,-3.104686 -0.99654,-0.402046 -2.07878,-0.496645 -3.14142,-0.378396 -1.3075,-1.171973 -3.15856,-1.648912 -4.83823,-1.260002 -1.81189,0.419125 -3.37648,1.763216 -4.30323,3.489648 -0.17507,0.06438 -0.34891,0.128762 -0.52276,0.194456 z M 145.2905,49.263407 c 1.89269,-3.776076 6.16776,-5.192433 10.01068,-5.313309 1.83025,-0.05781 5.03043,-0.03548 6.92434,1.270516 1.60499,-1.706723 3.6605,-2.92994 5.87149,-3.444979 2.37627,-0.554455 4.90679,-0.283797 7.14961,0.721317 3.22956,-1.323072 6.89129,-1.744825 10.09759,-0.540002 2.4081,0.90526 4.65214,2.809064 5.22999,5.30674 1.97593,-0.0092 3.95432,0.228614 5.81273,0.930223 2.34321,0.882924 4.49176,2.567311 5.64378,4.929659 0.85085,1.743511 1.07856,3.871988 0.55458,5.733748 0.71496,1.016939 1.03572,2.27563 1.02959,3.57374 -0.006,1.600298 -0.51051,3.257095 -1.38462,4.589365 -1.52052,0.432266 -3.13775,0.474306 -4.66806,0.08803 -1.8633,-0.47037 -3.57725,-1.568768 -4.87495,-3.077097 -1.11039,0.87767 -2.40809,1.480739 -3.76701,1.735631 -0.939,0.176058 -1.90248,0.186568 -2.84393,0.0289 -0.22036,0.88818 -0.71129,1.717232 -1.36014,2.32687 -1.10916,1.043219 -2.60152,1.514899 -4.07184,1.631833 -2.32363,0.183943 -4.73907,-0.49139 -6.54238,-2.073293 -1.28424,-1.128618 -2.21956,-2.734175 -2.56603,-4.464547 -1.16058,0.157664 -2.33096,0.151094 -3.47196,-0.116934 -1.16549,-0.271972 -2.29547,-0.85796 -3.18549,-1.693586 -2.17304,2.242785 -5.49565,3.19666 -8.40079,2.27169 -2.35545,-0.751536 -4.3118,-2.697385 -5.3316,-5.084695 -1.98206,0.225988 -4.029,-0.190512 -5.77722,-1.219276 -2.25017,-1.327015 -3.96779,-3.647316 -4.68765,-6.289518 1.25975,-1.174604 2.93697,-1.81052 4.60929,-1.821031"
       style="fill:#ffffff;fill-opacity:1;fill-rule:nonzero;stroke:none;stroke-width:0.0126827" />
    <path
       id="path34"
       d="m 47.10459,194.84689 c 1.90915,-2.20307 4.58962,-3.77722 7.17888,-4.94015 5.28889,-2.37425 12.1509,-3.22831 17.07985,-0.0261 -0.36888,-1.95187 -0.2596,-3.99863 0.38931,-5.87422 0.88717,-2.56217 2.80471,-4.76338 5.25277,-5.837 1.44012,-0.63077 3.05373,-0.85034 4.60513,-0.64194 1.368424,-2.5845 3.418231,-4.78571 5.984869,-6.09564 3.624927,-1.85027 8.272203,-1.71314 11.53336,0.74242 2.522491,1.89977 3.977931,5.21553 3.718151,8.35639 2.98988,-0.82615 6.10144,-1.34529 9.17415,-1.20015 1.92812,0.0912 3.8411,0.44284 5.69899,1.14246 8.46704,3.1911 12.66335,14.99163 7.5215,22.83261 -0.66661,1.0178 -1.5078,1.86814 -2.47743,2.5045 -0.47378,3.65254 -4.82661,6.45103 -8.12699,7.24554 -4.50735,1.08479 -9.43958,0.19166 -13.58025,-1.81045 -2.014594,-0.97314 -3.921557,-2.25144 -5.471318,-3.89816 -0.653472,-0.69218 -1.247654,-1.44576 -1.759193,-2.24586 -3.947285,6.66874 -13.686789,9.5584 -20.701309,10.12963 -6.05054,0.49309 -12.26418,-0.58054 -17.45528,-3.72511 -3.92357,2.81151 -9.16412,3.69534 -13.82708,3.95397 -5.28834,0.29399 -10.96217,-0.35539 -15.65086,-3.03479 -1.42552,-0.81312 -2.73557,-1.82907 -3.84786,-3.03666 -1.99653,1.21504 -4.66314,1.46437 -6.86036,1.36203 -3.22211,-0.15071 -7.0602999,-1.23364 -8.3117899,-4.64243 -1.18307,-3.22459 0.50279,-6.78596 3.0739899,-8.74527 3.11466,-2.37239 7.35967,-2.14725 10.98952,-1.47926 0.74269,0.13583 1.48026,0.29957 2.21254,0.48564 1.21919,-1.80301 3.11102,-3.29157 5.08074,-4.16238 1.96971,-0.87266 4.1195,-1.26899 6.2649,-1.36202 4.39588,-0.18608 8.80509,1.29132 12.31107,4.00235"
       style="fill:#c7ebfa;fill-opacity:1;fill-rule:nonzero;stroke:none;stroke-width:0.0184242" />
    <path
       id="path35"
       d="m 78.02373,189.78765 c 0.99353,-1.30248 2.19813,-2.43565 3.6512,-3.13899 1.1672,-0.56565 2.513184,-0.81312 3.78656,-0.64938 0.144852,-0.17677 0.296818,-0.34981 0.454804,-0.51542 2.19703,-2.31098 5.622011,-3.28971 8.597297,-2.03746 1.637328,0.68846 2.974191,1.9649 3.686223,3.53905 0.04506,-0.87453 -0.04597,-1.74906 -0.304661,-2.57521 -0.09286,-0.29771 -0.207243,-0.58612 -0.344615,-0.86894 -1.224667,-2.51008 -4.119317,-3.89072 -6.865286,-3.76605 -2.131354,0.0949 -4.154527,0.97686 -5.90022,2.2533 -1.665058,-0.0912 -3.389042,0.53588 -4.612062,1.71184 -1.58352,1.52205 -2.32437,3.82932 -2.14924,6.04726 z m -67.77791,7.5749 c 3.11466,-2.37239 7.35967,-2.14724 10.98952,-1.47925 0.74269,0.13583 1.48026,0.29957 2.21254,0.48377 1.21919,-1.80114 3.11102,-3.28971 5.08074,-4.16051 1.96971,-0.87267 4.1195,-1.26899 6.2649,-1.36203 4.39588,-0.18607 8.80509,1.29133 12.31107,4.00236 1.90915,-2.20307 4.58962,-3.77722 7.17888,-4.94015 5.28889,-2.37425 12.1509,-3.22831 17.07985,-0.0261 -0.36888,-1.95187 -0.2596,-3.99863 0.38931,-5.87422 0.88717,-2.56217 2.80471,-4.76338 5.25277,-5.837 1.44012,-0.63077 3.05373,-0.85034 4.60513,-0.64194 1.368424,-2.5845 3.418231,-4.78571 5.984869,-6.09564 3.624927,-1.85009 8.272203,-1.71314 11.53336,0.74242 2.522491,1.89977 3.977931,5.21553 3.717971,8.35639 2.99006,-0.82615 6.10162,-1.34529 9.17433,-1.20015 1.92812,0.0912 3.8411,0.44284 5.69899,1.14246 0.61827,0.23259 1.21372,0.51169 1.78437,0.83173 1.86792,1.04758 3.47077,2.53241 4.73941,4.28705 -0.76239,2.69057 -3.05811,4.99039 -5.45527,6.25938 -2.98897,1.58346 -6.48601,2.14724 -9.80427,1.59276 -0.66788,3.43112 -5.65521,4.94759 -8.71223,4.83781 -2.685035,-0.0986 -5.617632,-1.10525 -7.425352,-3.14086 -2.957407,4.5922 -11.094788,5.49092 -15.881808,5.05551 -1.09752,-0.0986 -2.19284,-0.29771 -3.2369,-0.63263 -0.56444,3.98003 -4.70036,6.84736 -8.42636,7.50791 -5.10134,0.90616 -10.95924,-1.26714 -14.0075,-5.63977 -2.56335,2.21422 -5.82232,3.59672 -9.17743,3.81256 -3.57038,0.23073 -7.19604,-0.86522 -10.10656,-2.97897 -1.79312,2.07282 -4.9939,2.71289 -7.66671,2.8971 -5.91098,0.40377 -11.92267,-1.01035 -16.7651499,-4.53451 0.61863,-1.28202 1.56107,-2.42263 2.6675299,-3.26552"
       style="fill:#ffffff;fill-opacity:1;fill-rule:nonzero;stroke:none;stroke-width:0.0184242" />
    <path
       id="path26"
       d="m 78.773344,104.97225 c -2.58777,-2.25426 -6.09573,-2.3778 -9.49619,-2.29097 -0.41689,-3.61594 -1.90365,-7.05641 -5.40457,-9.25427 -2.68924,-1.68845 -6.07965,-2.35363 -9.3656,-2.21755 -4.81288,0.19965 -9.68102,1.74486 -13.05034,4.79768 -1.63243,-0.26051 -3.33919,-0.15398 -4.90431,0.33573 -1.74995,0.54789 -3.3,1.56849 -4.43617,2.87198 -4.42311,-2.65891 -12.79318,0.80842 -14.75108,4.62759 -0.12959,0.25246 -0.23809,0.50582 -0.32649,0.76007 -0.679086,1.93465 -0.25315,3.9266 0.51836,5.82365 -0.23306,0.61504 -0.35964,1.26052 -0.36868,1.90869 -0.0191,1.34199 0.45005,2.66249 1.15927,3.84602 2.04631,3.41451 6.18312,5.7207 10.51583,6.00359 2.80375,0.18353 5.55124,-0.41181 8.2244,-1.25515 1.25772,0.86214 2.71535,1.53895 4.01727,2.09312 5.68485,2.41808 13.59281,3.19247 18.67794,-0.33841 2.42301,0.52641 5.00978,0.79588 7.44486,0.60609 1.47671,-0.1146 2.92128,-0.54252 4.08356,-1.24889 1.72786,0.0618 3.46978,-0.11548 5.06403,-0.6974 1.98202,-0.72426 3.71289,-2.13698 4.36385,-3.95614 0.32146,-0.89884 0.33754,-1.89079 0.0623,-2.80037 1.06986,-3.33215 0.9222,-7.04656 -2.02822,-9.61506"
       style="fill:#c7ebfa;fill-opacity:1;fill-rule:nonzero;stroke:none;stroke-width:0.00948342" />
    <path
       id="path27"
       d="m 68.814054,111.67773 c -0.438,1.17189 -1.50183,2.15398 -2.78165,2.59535 0.80164,-1.88094 0.98246,-3.99375 -0.26219,-5.76367 -0.16475,-0.23366 -0.34658,-0.45121 -0.54247,-0.65175 -1.33809,-1.36436 -3.36832,-1.96419 -5.39655,-1.94181 -0.14867,-0.72426 -0.52438,-1.41182 -1.09397,-1.94449 -0.88402,-0.82723 -2.20603,-1.25605 -3.47982,-1.15847 0.91315,-0.44673 1.90968,-0.75739 2.94338,-0.85855 1.31599,-0.12802 2.69225,0.0976 3.81234,0.72605 0.88302,0.49597 1.59124,1.25068 1.94886,2.11908 1.42147,0.35273 2.73846,1.0376 3.68677,2.03939 1.24667,1.31782 1.77708,3.20323 1.1653,4.83887 z M 54.644614,97.55505 c -0.90913,-0.57655 -2.04932,-0.80126 -3.1654,-0.8308 -1.2768,-0.0349 -2.57169,0.17278 -3.71389,0.68308 -0.60676,0.27215 -1.23762,0.58818 -1.73388,1.00716 0.33754,-0.57744 0.73334,-1.16921 1.22356,-1.59893 0.98951,-0.86571 2.3065,-1.45837 3.69179,-1.5291 1.3843,-0.0707 2.81983,0.4154 3.70284,1.36886 0.1316,0.14234 0.25014,0.29542 0.35261,0.45568 0.22804,0.35631 0.38374,0.75022 0.45607,1.15398 -0.22803,-0.27215 -0.5053,-0.51387 -0.8137,-0.70993 z m -9.4781,10.63476 c -0.006,0.0511 -0.0131,0.10205 -0.0211,0.15219 -0.11754,0.70636 -0.47316,1.37332 -0.99051,1.91764 -0.0402,-1.18174 -0.35662,-2.34737 -1.45361,-3.12445 -1.42046,-1.00537 -3.23471,-0.75828 -4.87417,-0.31692 -0.34557,-0.88183 -1.20949,-1.55506 -2.23817,-1.90242 -1.60731,-0.54163 -3.29097,-0.23366 -4.79481,0.41003 0.54447,-1.09491 1.45763,-2.05551 2.64101,-2.61953 1.27982,-0.61056 2.87809,-0.71978 4.19709,-0.17815 0.80265,0.32945 1.47671,0.91137 1.88055,1.60609 1.2748,-0.36527 2.74448,-0.1889 3.84348,0.49955 1.25269,0.78514 1.96695,2.19965 1.81023,3.55597 z m 36.2398,2.51209 c -0.0532,-2.10744 -0.80466,-4.13788 -2.63297,-5.72965 -2.58777,-2.25426 -6.09573,-2.3778 -9.49619,-2.29097 -0.41689,-3.61594 -1.90365,-7.05641 -5.40457,-9.25427 -2.68924,-1.68845 -6.07965,-2.35363 -9.3656,-2.21755 -4.81288,0.19965 -9.68102,1.74486 -13.05034,4.79768 -1.63243,-0.26051 -3.33919,-0.15398 -4.90431,0.33573 -1.74995,0.54789 -3.3,1.56849 -4.43617,2.87198 -3.36732,-2.02417 -9.02404,-0.49776 -12.39336,2.03224 0.41589,1.90242 1.36722,3.70726 2.92932,5.0385 1.23361,1.05104 2.87909,1.74755 4.56476,1.92302 0.93123,1.6983 2.53151,3.10743 4.46933,3.88183 1.65854,0.66339 3.5421,0.85139 5.32822,0.57296 0.95133,1.55417 2.58878,2.8147 4.43116,3.52822 1.78009,0.69024 3.71891,0.9418 5.66878,0.92927 1.57917,0.95614 3.63553,1.36348 5.58339,1.46465 1.73689,0.0904 3.53005,-0.0125 5.12028,-0.6437 0.69014,-0.27305 1.33808,-0.6598 1.87654,-1.13071 1.75296,0.63205 3.61845,1.01612 5.50503,1.12892 1.57717,0.094 3.21864,-0.0125 4.62503,-0.65443 0.67407,-0.30797 1.28384,-0.75918 1.7359,-1.3017 1.20447,0.21306 2.48028,0.0877 3.60941,-0.33662 1.55106,1.11101 3.41955,1.87108 5.37645,2.19875 0.0733,-0.14951 0.13662,-0.3026 0.19288,-0.45837 0.32146,-0.89884 0.33754,-1.89079 0.0623,-2.80037 0.40685,-1.26768 0.6379,-2.59087 0.60475,-3.88541"
       style="fill:#ffffff;fill-opacity:1;fill-rule:nonzero;stroke:none;stroke-width:0.00948342" />
    <path
       id="path36"
       d="m 164.86679,140.10589 c -0.0259,-0.0117 -0.0518,-0.0237 -0.0776,-0.0358 -0.82256,-0.38379 -1.54385,-0.95112 -2.05809,-1.6347 -1.42907,0.38948 -3.05394,0.53019 -4.40649,-0.0156 -0.86195,-0.34733 -1.39307,-0.97948 -1.73852,-1.7065 -1.86567,-0.16477 -3.60981,-1.27827 -4.32548,-2.82419 -0.6729,-1.45303 -0.39721,-3.20267 0.63352,-4.47196 -0.65265,-0.57223 -1.18602,-1.24532 -1.51572,-2.0033 -0.54124,-1.24332 -0.48161,-2.72133 0.33533,-3.83982 0.64927,-0.8878 1.80603,-1.48699 2.9808,-1.52494 -0.0844,-0.95471 -0.036,-1.91642 0.18567,-2.85315 0.39946,-1.68573 1.39306,-3.28857 2.92903,-4.34214 1.95569,-1.34119 4.57303,-1.67774 7.04184,-1.5559 2.30677,0.11384 4.68105,0.6631 6.54785,1.91441 1.70588,1.14446 2.57233,2.7413 3.19684,4.45998 1.13876,-0.74 2.64098,-1.05357 4.01829,-0.75797 1.34692,0.28961 2.49918,1.14545 3.13945,2.23199 0.83944,-0.5253 1.84992,-0.83587 2.87728,-0.86184 1.55397,-0.04 3.11245,0.57423 4.1218,1.62181 0.75955,0.78894 1.19727,1.81056 1.24566,2.84516 0.79443,0.1518 1.53147,0.56824 2.01083,1.15544 0.74829,0.91776 0.86419,2.19005 0.37583,3.23664 -0.29031,0.62515 -0.78205,1.16542 -1.38969,1.57487 0.44335,1.13148 0.19917,2.47966 -0.68865,3.39143 -0.67966,0.69706 -1.69689,1.10151 -2.73099,1.15244 -0.58288,0.99066 -1.59336,1.78559 -2.78838,2.14611 -0.86645,0.26164 -1.81279,0.28961 -2.70399,0.10585 -0.62114,1.05897 -1.52472,1.99022 -2.65222,2.64054 -1.38181,0.79722 -3.10232,1.15165 -4.72156,0.88201 -1.01611,-0.16907 -1.98045,-0.5924 -2.74675,-1.20418 -0.89007,0.39517 -1.83754,0.68338 -2.81989,0.817 -1.44707,0.19664 -2.97179,0.0435 -4.27596,-0.54376"
       style="fill:#c7ebfa;fill-opacity:1;fill-rule:nonzero;stroke:none;stroke-width:0.0106007" />
    <path
       id="path37"
       d="m 176.98015,123.96856 c -0.84282,-0.18974 -1.72052,-0.21771 -2.58809,-0.12783 0.18679,-0.2187 0.39609,-0.42942 0.62114,-0.62216 1.30192,-1.11749 3.14734,-1.66675 4.34348,-0.0599 0.75955,1.02063 1.31542,2.29091 1.72389,3.4863 -1.03861,-1.2573 -2.27976,-2.26794 -4.10042,-2.67639 z M 164.06448,117.71 c -1.48758,0.75998 -2.57008,2.09418 -2.97404,3.57218 -1.078,-0.1438 -2.13461,0.40646 -2.74787,1.30025 -0.39947,0.57922 -0.57163,1.20038 -0.54463,1.81755 -0.37696,-1.64978 -0.29594,-3.10382 0.24193,-4.01758 0.56038,-0.94573 1.65975,-1.37714 3.01793,-1.17542 0.0326,-0.63614 0.23631,-1.17641 0.58176,-1.56389 0.66278,-0.75598 1.81616,-1.0326 3.13046,-1.00464 0.88332,0.019 1.86454,0.16278 2.90428,0.3685 -1.25016,-0.0809 -2.5217,0.1478 -3.60982,0.70305 z m 27.94455,8.19694 c -0.47935,-0.5872 -1.2164,-1.00364 -2.01082,-1.15544 -0.0259,-0.55325 -0.16317,-1.10251 -0.40059,-1.61482 -0.20818,-0.4454 -0.49174,-0.86283 -0.84507,-1.23034 -1.00935,-1.04758 -2.56783,-1.66176 -4.1218,-1.62181 -1.02736,0.026 -2.03784,0.33655 -2.87728,0.86184 -0.64027,-1.08654 -1.79253,-1.94238 -3.13946,-2.23199 -1.37731,-0.2956 -2.87952,0.018 -4.01828,0.75797 -0.62451,-1.71867 -1.49096,-3.31552 -3.19684,-4.45998 -1.8668,-1.25131 -4.24108,-1.80057 -6.54785,-1.91441 -2.46881,-0.12184 -5.08615,0.21471 -7.04184,1.5559 -1.53597,1.05358 -2.52957,2.65641 -2.92904,4.34214 -0.22167,0.93673 -0.27006,1.89844 -0.18567,2.85315 -1.17476,0.038 -2.33152,0.63714 -2.98079,1.52494 -0.7618,1.0416 -0.86532,2.39577 -0.43885,3.58217 0.84507,0.71603 1.88142,1.2563 3.00668,1.53892 1.41894,0.35552 2.96054,0.2976 4.35023,-0.13182 0.87545,0.90378 2.06484,1.57088 3.37351,1.84851 1.29967,0.27563 2.69161,0.16078 3.92488,-0.28562 1.22315,1.45204 3.03819,2.5176 5.04114,2.88811 2.33153,0.43241 4.85322,-0.0879 6.7639,-1.3412 0.98685,0.19374 2.0097,0.22969 2.99318,0.025 1.0116,-0.20972 1.96919,-0.70505 2.63984,-1.40011 0.7933,-0.0369 1.57986,-0.21271 2.29439,-0.52329 0.76067,-0.33156 1.4347,-0.81391 1.9692,-1.39512 0.65827,0.21071 1.37393,0.30659 2.07271,0.2936 1.01273,-0.018 2.00071,-0.23568 2.9583,-0.53927 0.0799,-0.78394 -0.13503,-1.59085 -0.65378,-2.227"
       style="fill:#ffffff;fill-opacity:1;fill-rule:nonzero;stroke:none;stroke-width:0.0106007" />
    <path
       id="path17"
       d="m 234.13132,148.69689 c 0.20756,-0.81014 0.54014,-1.57934 1.00126,-2.26278 1.25955,-1.86345 3.37531,-2.93468 5.4946,-2.9846 2.74081,-3.44023 7.26715,-4.98757 11.39606,-3.58614 5.21037,1.7662 8.28965,7.66502 7.35206,13.28611 2.13699,0.0755 4.25982,0.91509 5.89794,2.41508 1.55674,1.42702 2.6441,3.42103 3.11584,5.5699 4.10532,-0.006 8.70951,1.43343 10.23204,5.98482 0.95292,2.85087 0.37268,6.01375 -0.96824,8.65882 3.32105,-0.0604 6.69517,1.30915 8.82744,4.13544 2.83515,3.75879 2.62051,9.05352 -0.25592,12.69751 -2.34337,2.96796 -6.03474,4.70471 -9.63412,4.50762 -2.84106,-0.15486 -5.58894,-1.3208 -7.91226,-3.11899 -1.51075,0.96756 -3.12174,1.73932 -4.84123,2.16039 -6.52889,1.59981 -14.17697,0.76535 -19.87677,-3.32761 -1.62043,1.56269 -3.71141,2.51618 -5.78472,3.29177 -4.5971,1.71756 -10.20963,2.32292 -14.96359,0.99317 -6.40741,-1.79179 -8.37692,-9.25984 -6.30952,-15.54146 0.45287,-1.37584 1.27369,-2.63508 2.31506,-3.61301 -0.77483,-3.2823 -0.0189,-6.63423 3.1583,-8.61108 3.21727,-2.00258 7.32259,-2.28568 11.06113,-1.46542 -1.28314,-3.80833 -1.77846,-7.86417 -0.0649,-11.71395 0.32315,-0.72567 0.72059,-1.41295 1.18289,-2.03111 -0.73119,-1.67405 -0.88215,-3.65781 -0.42338,-5.44448"
       style="fill:#c7ebfa;fill-opacity:1;fill-rule:nonzero;stroke:none;stroke-width:0.0122857" />
    <path
       id="path18"
       d="m 227.44676,167.59334 c 1.66052,-0.22077 3.37648,-0.16638 5.04172,0.11134 1.20058,2.47741 1.96243,5.15984 1.58859,7.88592 -0.58261,4.25947 -3.93903,7.63148 -7.71178,8.96469 -3.2609,1.15238 -6.77536,1.01365 -10.17307,0.36515 0.11321,-1.12703 0.35144,-2.25369 0.70997,-3.3445 0.45287,-1.37584 1.27369,-2.63508 2.31506,-3.61301 -0.77483,-3.2823 -0.0189,-6.63423 3.1583,-8.61108 1.53315,-0.95489 3.27034,-1.51879 5.07121,-1.75851"
       style="fill:#ffffff;fill-opacity:1;fill-rule:nonzero;stroke:none;stroke-width:0.0122857" />
    <path
       id="path19"
       d="m 249.46169,185.1933 c -1.94947,-2.26328 -4.31053,-3.50794 -6.37321,-3.29472 -2.02613,0.20977 -3.71849,1.82418 -4.61244,4.3081 2.3304,-1.30007 5.01696,-1.85258 7.62096,-1.5234 1.35508,0.17125 2.68067,0.58042 3.92016,1.19717 -0.18044,-0.23844 -0.3656,-0.46753 -0.55547,-0.68715"
       style="fill:#ffffff;fill-opacity:1;fill-rule:nonzero;stroke:none;stroke-width:0.0122857" />
    <path
       id="path20"
       d="m 251.9454,157.62511 c 1.45296,-0.90357 3.20902,-1.308 4.8377,-0.88821 0.64628,0.16638 1.26426,0.47354 1.80676,0.89205 -0.0177,-0.0512 -0.0354,-0.10111 -0.0543,-0.15102 -0.20166,-0.54522 -0.46938,-1.06995 -0.80667,-1.52942 -0.33966,-0.46203 -0.74771,-0.85494 -1.22771,-1.13267 -1.19704,-0.6924 -2.70661,-0.55801 -3.90837,0.12415 -1.20175,0.68216 -2.12046,1.85322 -2.77737,3.14075 -0.45994,0.90357 -0.80431,1.8673 -1.1133,2.84638 0.8739,-1.31952 1.94593,-2.49698 3.24321,-3.30201 z m 1.39753,11.66108 c 0.81258,-0.99828 1.80558,-1.82339 2.94484,-2.30885 1.46121,-0.62315 3.17245,-0.64248 4.5688,0.13695 0.27833,0.15473 0.54014,0.343 0.78073,0.55405 1.94003,-0.5785 4.18198,-0.0223 5.60309,1.54464 1.27842,1.40976 1.79261,3.52727 1.47065,5.46394 0.92226,-1.22431 1.35861,-2.87685 1.16756,-4.44978 -0.2229,-1.83966 -1.28077,-3.52778 -2.7526,-4.47243 -1.19704,-0.76919 -2.64411,-1.0418 -4.01923,-0.81143 -0.28776,-0.47866 -0.66515,-0.89845 -1.08972,-1.23505 -0.83498,-0.66296 -1.84568,-1.029 -2.867,-1.20946 -1.43056,-0.25341 -3.00499,-0.1203 -4.15485,0.83575 -0.059,0.0487 -0.11558,0.0998 -0.171,0.15102 -0.98948,0.93045 -1.47773,2.38986 -1.56028,3.81548 -0.0389,0.66437 -0.002,1.32682 0.079,1.98517 z M 242.73704,157.7211 c -0.69229,-0.57209 -1.33031,-1.22098 -1.89876,-1.93897 -2.50612,-3.16635 -3.57697,-7.5831 -2.9413,-11.69014 0.86093,-0.39931 1.79615,-0.62072 2.7302,-0.64248 2.74081,-3.44023 7.26715,-4.98757 11.39606,-3.58614 5.21037,1.7662 8.28965,7.66502 7.35206,13.28611 2.13699,0.0755 4.25982,0.91509 5.89794,2.41508 1.55674,1.42702 2.6441,3.42103 3.11584,5.5699 4.10532,-0.006 8.70951,1.43343 10.23204,5.98482 0.95292,2.85087 0.37268,6.01375 -0.96824,8.65882 3.32105,-0.0604 6.69517,1.30928 8.82744,4.13544 0.61797,0.8191 1.09089,1.71129 1.42347,2.64327 -0.42692,0.60934 -0.91517,1.16915 -1.4506,1.66893 -1.43645,1.34038 -3.21845,2.24856 -5.09833,2.5172 -2.7868,0.39829 -5.70098,-0.622 -7.80258,-2.62932 -1.56736,0.58399 -3.29629,0.66296 -4.88134,0.13502 -2.44125,-0.81283 -4.41784,-3.02159 -5.20447,-5.64169 -1.47301,1.39362 -3.27505,2.38115 -5.19622,2.78187 -3.518,0.73387 -7.33673,-0.52179 -9.88884,-3.2512 -1.44117,-1.54234 -2.45542,-3.53085 -2.95192,-5.65948 -0.61208,-0.26007 -1.20411,-0.5744 -1.76549,-0.95119 -1.83389,-1.23134 -3.31515,-3.18401 -3.7692,-5.47135 -0.40216,-2.01973 0.0247,-4.18267 1.00598,-5.95526 0.49297,-0.89077 1.12039,-1.68685 1.83626,-2.37924"
       style="fill:#ffffff;fill-opacity:1;fill-rule:nonzero;stroke:none;stroke-width:0.0122857" />
    <path
       id="path7"
       d="m 268.56273,94.526473 c 0.65842,-0.495313 1.43554,-0.765299 2.21786,-0.701355 0.21485,0.01725 0.43057,0.05988 0.64023,0.126873 0.89581,-1.844229 2.40673,-3.288553 4.16802,-3.772701 1.56636,-0.429339 3.2904,-0.03248 4.60033,1.0363 0.003,-0.0081 0.006,-0.01624 0.01,-0.02436 2.17108,-5.096242 10.07221,-7.68141 13.80792,-3.614363 0.38552,-3.771686 1.85572,-7.485518 4.35688,-9.946858 2.06278,-2.029971 4.84377,-3.044957 7.49567,-2.655202 2.18061,-3.724997 7.701,-3.436741 10.51665,-0.864768 0.84642,0.773419 1.52218,1.832049 1.86525,3.013492 1.46154,-0.473998 3.12493,-0.04466 4.3179,1.073855 1.39396,1.306286 2.13902,3.45095 2.07058,5.540806 -0.0347,1.077914 -0.27463,2.134514 -0.67143,3.1089 1.49706,0.623202 2.83298,1.78536 3.73918,3.315958 0.73813,1.248432 1.17997,2.723206 1.30559,4.23452 1.99607,2.238043 2.99411,6.18329 1.17304,8.84864 -1.75263,2.56386 -5.83314,3.53418 -8.39321,1.91934 -0.95213,0.86172 -2.09051,1.45752 -3.26442,1.71025 -2.58866,0.55926 -5.27694,-0.36032 -7.49394,-1.95283 -2.94386,1.98734 -7.27129,1.72345 -10.19696,0.3451 -1.61574,-0.76125 -3.08334,-1.96299 -4.13683,-3.58696 -1.92676,3.2713 -5.70406,5.05869 -8.75015,6.15182 -4.24166,1.52248 -10.8961,1.55699 -13.34268,-3.76965 -0.10829,-0.23649 -0.19666,-0.49024 -0.25817,-0.75008 -0.68355,0.37453 -1.41995,0.60899 -2.17281,0.66583 -1.59842,0.12079 -3.25402,-0.6029 -4.30577,-2.01779 -1.05175,-1.41489 -1.42861,-3.515908 -0.84123,-5.261683 0.29889,-0.891157 0.85682,-1.655442 1.54297,-2.173084"
       style="fill:#c7ebfa;fill-opacity:1;fill-rule:nonzero;stroke:none;stroke-width:0.00937729" />
    <path
       id="path8"
       d="m 303.71581,97.89927 c 0.28763,0.400919 0.50682,0.869842 0.62984,1.375305 0.18453,0.757175 0.14988,1.581345 -0.078,2.321275 0.46263,-0.42427 0.85595,-0.94089 1.12626,-1.54989 0.49728,-1.11851 0.47302,-2.552684 -0.17068,-3.603195 -0.66622,-1.089079 -1.80807,-1.434174 -2.90574,-1.38444 -0.37686,-0.68816 -0.98764,-1.204788 -1.67466,-1.357035 -0.84296,-0.186758 -1.75003,0.184727 -2.34088,0.903337 0.23218,-0.03146 0.46696,-0.0203 0.69568,0.03755 0.7442,0.188787 1.38443,0.863753 1.62181,1.710251 0.0243,0.08729 0.0442,0.175592 0.0572,0.265926 0.51808,-0.112663 1.05868,-0.0812 1.5603,0.106574 0.57526,0.215176 1.08987,0.63335 1.47886,1.174338"
       style="fill:#ffffff;fill-opacity:1;fill-rule:nonzero;stroke:none;stroke-width:0.00937729" />
    <path
       id="path9"
       d="m 290.48489,100.86709 c 0.005,0.27912 -0.009,0.56331 -0.039,0.84548 -0.58392,-1.17535 -1.62961,-2.037076 -2.78098,-2.240073 -0.96079,-0.169502 -1.96662,0.123829 -2.76973,0.761243 -0.2833,-0.59783 -0.67489,-1.123593 -1.15052,-1.520452 -0.77365,-0.647561 -1.75089,-0.936831 -2.69695,-0.840408 0.9989,-1.075885 2.31229,-1.803629 3.67506,-1.297152 0.53887,0.199953 1.03963,0.630306 1.35585,1.192608 0.81437,-0.223296 1.67725,-0.336975 2.48209,-0.07917 1.36191,0.436443 1.89645,1.751865 1.92417,3.177914"
       style="fill:#ffffff;fill-opacity:1;fill-rule:nonzero;stroke:none;stroke-width:0.00937729" />
    <path
       id="path10"
       d="m 310.55306,85.724518 c 1.77602,0.475014 2.63891,2.023881 3.03916,3.839691 1.66339,0.02233 3.42989,0.519672 3.83361,2.644037 0.11176,0.588691 0.0927,1.192608 0.006,1.789419 1.07688,-0.838378 1.77429,-2.346646 1.72231,-3.86811 -0.0615,-1.826973 -1.20163,-3.535194 -2.69955,-4.048777 -0.26164,-0.08932 -0.52934,-0.144128 -0.79705,-0.173562 -1.15917,-3.555495 -5.43549,-5.605765 -8.25026,-3.572749 -0.44877,0.32378 -0.82997,0.733834 -1.14185,1.201742 -0.65323,0.979461 -1.0093,2.216729 -1.07601,3.474296 1.50312,-1.230163 3.60835,-1.755925 5.36358,-1.285987 z m -41.99033,8.801955 c 0.65842,-0.495313 1.43554,-0.765299 2.21786,-0.701355 0.21485,0.01725 0.43057,0.05988 0.64023,0.126873 0.89581,-1.844229 2.40673,-3.288553 4.16802,-3.772701 1.56636,-0.429339 3.2904,-0.03248 4.59946,1.0363 0.003,-0.0081 0.007,-0.01624 0.0104,-0.02436 2.17107,-5.096242 10.0722,-7.68141 13.80791,-3.614363 0.38552,-3.771686 1.85572,-7.485518 4.35688,-9.946858 2.06278,-2.029971 4.84377,-3.045972 7.49567,-2.655202 2.18061,-3.724997 7.701,-3.436741 10.51665,-0.864768 0.84642,0.773419 1.52218,1.831034 1.86525,3.013492 1.46154,-0.473998 3.12493,-0.04466 4.3179,1.073855 1.39396,1.306286 2.13902,3.45095 2.07058,5.540806 -0.0346,1.077914 -0.27463,2.134514 -0.67142,3.1089 1.49705,0.623202 2.83297,1.78536 3.73917,3.315958 0.26077,0.441519 0.48516,0.911457 0.67142,1.401695 0.33961,0.895217 0.5536,1.856409 0.63417,2.832825 1.06908,1.198697 1.8514,2.886618 2.06885,4.604989 -0.91313,0.568392 -1.96142,0.841423 -2.99238,0.739925 -1.15658,-0.113679 -2.26724,-0.694251 -3.13446,-1.590483 -0.32315,0.37656 -0.70434,0.68816 -1.1072,0.903337 -0.77885,0.416144 -1.62007,0.546062 -2.47083,0.524748 -1.34891,2.618664 -4.84291,2.996234 -7.10842,2.148724 -1.20336,-0.44964 -2.29756,-1.32862 -3.09374,-2.494834 -0.87675,-1.285987 -1.35324,-2.926203 -1.72577,-4.499431 -1.10633,0.103528 -2.21786,0.01523 -3.28954,-0.326826 -1.84446,-0.587676 -3.54337,-2.017791 -4.43658,-3.967578 -1.27008,-0.149203 -2.52022,-0.571437 -3.65947,-1.253507 -0.39419,-0.236492 -0.77539,-0.503433 -1.13752,-0.797779 -0.10656,1.215953 -0.37253,2.391306 -0.91487,3.430652 -1.08207,2.071585 -3.18471,3.275358 -5.25702,3.258103 -1.77256,-0.01523 -3.494,-0.858678 -4.86717,-2.182219 -0.68008,0.533882 -1.43207,0.947997 -2.22132,1.213923 -1.21376,0.410054 -2.51155,0.468923 -3.75044,0.180667 -1.26314,2.163949 -3.54684,3.468206 -5.80888,3.477341 -2.21093,0.0091 -4.34996,-1.0972 -6.02548,-2.804405 0.15421,-0.159353 0.31968,-0.305511 0.49209,-0.436444"
       style="fill:#ffffff;fill-opacity:1;fill-rule:nonzero;stroke:none;stroke-width:0.00937729" />
    <path
       id="path5"
       d="m 260.96134,289.92541 c 2.6813,-2.68858 6.01248,-4.81125 9.50729,-5.95406 3.47377,-1.1384 7.23507,-1.45108 10.8795,-0.97546 -0.43715,-7.51963 5.22234,-14.30822 12.51352,-17.43498 5.71325,-2.44856 12.14417,-2.82949 18.31795,-1.87825 -0.57273,-5.0997 -0.0842,-10.35574 2.68832,-14.8543 3.14649,-5.1019 7.70962,-6.98456 12.72157,-7.14531 -0.17766,-3.92826 1.43065,-8.01947 4.06052,-11.15944 6.22287,-7.42935 18.02341,-10.14435 27.18004,-6.25131 7.193,3.05629 12.21898,9.95498 13.17976,17.28744 12.38963,3.69266 13.85768,20.9669 10.94262,32.20561 5.07039,6.22709 8.37351,13.84801 7.3052,21.7684 -1.22728,9.07641 -8.15611,16.62246 -17.28704,19.53563 -3.51351,1.11858 -7.18832,1.68669 -10.89819,1.89587 -2.68364,1.44888 -5.65716,2.47719 -8.54651,3.06731 -14.68522,2.99684 -30.96238,0.40736 -44.78734,-5.4432 -10.89586,6.96254 -28.23666,11.3422 -36.79953,1.45328 -4.3878,-0.2268 -8.77092,-0.99968 -12.1769,-3.73449 -3.95066,-3.1708 -5.67118,-8.1582 -4.45325,-12.90999 0.88597,-3.45044 2.9361,-6.75116 5.65247,-9.47275"
       style="fill:#c7ebfa;fill-opacity:1;fill-rule:nonzero;stroke:none;stroke-width:0.0226879" />
    <path
       id="path6"
       d="m 346.09263,310.38727 c 0.43481,-0.1233 0.8626,-0.25983 1.28572,-0.40736 3.97871,-1.38722 7.48988,-3.78953 10.38625,-6.71592 4.05584,1.86945 8.59092,2.82069 13.10495,2.69298 4.97455,-0.14093 9.88832,-1.59421 14.09145,-4.10222 0.83688,-7.7112 -2.42883,-15.11413 -7.37533,-21.18929 2.91506,-11.23871 1.44701,-28.51295 -10.94262,-32.20561 -0.96078,-7.33246 -5.98676,-14.23115 -13.17976,-17.28744 -5.85117,-2.486 -12.78001,-2.27681 -18.64522,0.13652 -1.62935,2.69958 -2.60182,5.75367 -2.73039,8.85841 -0.17533,4.22553 1.21558,8.46427 3.76364,11.94113 -3.47377,1.64485 -6.46599,4.21452 -8.44598,7.37871 -2.62988,4.19911 -3.42235,9.36486 -2.2652,14.10784 -4.03481,0.0639 -8.0556,0.73545 -11.78418,2.18653 -5.54026,2.15571 -10.38391,6.1192 -12.84781,11.26734 -2.76312,5.77569 -2.47325,14.64952 3.05533,19.03139 2.7678,2.19313 6.54313,2.56085 10.02391,2.52342 4.38546,-0.0484 8.71014,-1.43346 12.11145,-4.05157 1.62,2.20855 3.89688,4.01854 6.48936,5.14814 4.30598,1.87826 9.35066,1.97734 13.90443,0.687"
       style="fill:#ffffff;fill-opacity:1;fill-rule:nonzero;stroke:none;stroke-width:0.0226879" />
  </g>
</svg>
