<?xml version="1.0" encoding="UTF-8" standalone="no"?>
<!-- Created with Inkscape (http://www.inkscape.org/) -->

<svg
   width="400mm"
   height="200mm"
   viewBox="0 0 400 200"
   version="1.1"
   id="svg1"
   inkscape:version="1.4.3 (0d15f75, 2025-12-25)"
   sodipodi:docname="single-night-cloud-large.svg"
   xmlns:inkscape="http://www.inkscape.org/namespaces/inkscape"
   xmlns:sodipodi="http://sodipodi.sourceforge.net/DTD/sodipodi-0.dtd"
   xmlns="http://www.w3.org/2000/svg"
   xmlns:svg="http://www.w3.org/2000/svg">
  <sodipodi:namedview
     id="namedview1"
     pagecolor="#ffffff"
     bordercolor="#000000"
     borderopacity="0.25"
     inkscape:showpageshadow="2"
     inkscape:pageopacity="0.0"
     inkscape:pagecheckerboard="true"
     inkscape:deskcolor="#d1d1d1"
     inkscape:document-units="mm"
     inkscape:zoom="0.27258036"
     inkscape:cx="691.53918"
     inkscape:cy="603.49175"
     inkscape:window-width="944"
     inkscape:window-height="626"
     inkscape:window-x="0"
     inkscape:window-y="30"
     inkscape:window-maximized="0"
     inkscape:current-layer="layer1" />
  <defs
     id="defs1" />
  <g
     inkscape:label="Layer 1"
     inkscape:groupmode="layer"
     id="layer1">
    <path
       id="path34"
       d="m 140.41919,97.241707 c 5.45581,-7.153892 13.11582,-12.265532 20.51518,-16.041842 15.11413,-7.709754 34.72378,-10.48309 48.8093,-0.08475 -1.05415,-6.338186 -0.74186,-12.984502 1.11254,-19.074989 2.53527,-8.319975 8.01505,-15.467827 15.0109,-18.954126 4.11545,-2.04826 8.72668,-2.761256 13.16013,-2.084532 3.91058,-8.392486 9.76832,-15.540338 17.10304,-19.793992 10.35901,-6.008267 23.63957,-5.562973 32.95903,2.410814 7.20855,6.169005 11.36778,16.936066 10.6254,27.135185 8.54422,-2.682705 17.43616,-4.368476 26.21709,-3.897172 5.51001,0.296148 10.97675,1.438006 16.28607,3.709839 24.19637,10.36226 36.18821,48.681386 21.49428,74.142908 -1.90497,3.30504 -4.30885,6.0663 -7.07978,8.13271 -1.35392,11.86066 -13.79306,20.94803 -23.2246,23.52799 -12.88071,3.52257 -26.9756,0.62236 -38.80845,-5.87896 -5.75712,-3.16002 -11.20666,-7.31096 -15.63546,-12.65825 -1.86743,-2.24768 -3.56542,-4.69473 -5.02726,-7.29285 -11.28019,21.65499 -39.1129,31.0384 -59.15838,32.89332 -17.29071,1.60118 -35.0475,-1.88515 -49.88218,-12.09632 -11.21243,9.12964 -26.18842,11.99965 -39.51382,12.83948 -15.11255,0.95466 -31.326726,-1.15403 -44.725654,-9.85468 -4.073726,-2.64039 -7.817472,-5.93943 -10.996077,-9.86076 -5.705509,3.94553 -13.325914,4.75516 -19.604937,4.42284 -9.207864,-0.48939 -20.176308,-4.00593 -23.752706,-15.07508 -3.380874,-10.47101 1.436829,-22.03562 8.78458,-28.39797 8.900802,-7.703709 21.03182,-6.972625 31.404888,-4.80351 2.122395,0.44108 4.230158,0.97278 6.322803,1.57699 3.484095,-5.854797 8.890401,-10.688505 14.519295,-13.516232 5.628865,-2.833734 11.772346,-4.120712 17.903278,-4.422803 12.56217,-0.604246 25.16242,4.193223 35.1815,12.996582"
       style="fill:#214478;fill-opacity:1;fill-rule:nonzero;stroke:none;stroke-width:0.0561248" />
    <path
       id="path35"
       d="m 228.77721,80.813152 c 2.83922,-4.229463 6.28162,-7.909135 10.43407,-10.193047 3.33552,-1.8368 7.18197,-2.640394 10.8209,-2.108691 0.41394,-0.574015 0.84823,-1.135917 1.29972,-1.673692 6.27848,-7.504301 16.06608,-10.68247 24.56858,-6.616117 4.67902,2.235594 8.49938,6.380498 10.53419,11.492137 0.12888,-2.839807 -0.13146,-5.679614 -0.87064,-8.362319 -0.26548,-0.966735 -0.59226,-1.903271 -0.98482,-2.821655 -3.49976,-8.150826 -11.77183,-12.634093 -19.61903,-12.229259 -6.09078,0.308162 -11.87242,3.172096 -16.86113,7.317 -4.75823,-0.296148 -9.68489,1.74013 -13.17993,5.558752 -4.52525,4.942458 -6.64238,12.434712 -6.14191,19.636891 z M 35.087426,105.41065 c 8.900802,-7.703712 21.03182,-6.972596 31.404888,-4.80347 2.122395,0.44107 4.230158,0.97277 6.322803,1.57091 3.484095,-5.848727 8.890401,-10.682468 14.519295,-13.510163 5.628865,-2.833767 11.772346,-4.120712 17.903278,-4.422835 12.56217,-0.604213 25.16242,4.193256 35.1815,12.996615 5.45581,-7.153892 13.11582,-12.265532 20.51518,-16.041842 15.11413,-7.709754 34.72378,-10.48309 48.8093,-0.08475 -1.05415,-6.338186 -0.74186,-12.984502 1.11254,-19.074989 2.53527,-8.319975 8.01505,-15.467827 15.0109,-18.954126 4.11545,-2.04826 8.72668,-2.761256 13.16013,-2.084532 3.91058,-8.392486 9.76832,-15.540338 17.10304,-19.793992 10.35901,-6.007682 23.63957,-5.562973 32.95903,2.410814 7.20855,6.169005 11.36778,16.936066 10.62489,27.135185 8.54473,-2.682705 17.43667,-4.368476 26.2176,-3.897172 5.51001,0.296148 10.97675,1.438006 16.28607,3.709839 1.76684,0.755275 3.46846,1.661579 5.09922,2.700825 5.33798,3.401741 9.91846,8.223337 13.54387,13.92107 -2.17869,8.736921 -8.7392,16.204983 -15.5896,20.325695 -8.54161,5.141871 -18.53515,6.972599 -28.01778,5.172071 -1.90861,11.141657 -16.16096,16.065997 -24.89705,15.709517 -7.67304,-0.32018 -16.05357,-3.58901 -21.21951,-10.199117 -8.45143,14.911957 -31.70572,17.830317 -45.38565,16.416437 -3.13639,-0.32018 -6.2665,-0.96673 -9.25013,-2.0543 -1.613,12.92411 -13.43227,22.23501 -24.08011,24.37997 -14.57816,2.94252 -31.31836,-4.1147 -40.02941,-18.31367 -7.32531,7.1901 -16.63851,11.6794 -26.22645,12.38029 -10.20312,0.74923 -20.56422,-2.80958 -28.881647,-9.67343 -5.124221,6.73094 -14.27113,8.8094 -21.909253,9.40757 -16.891881,1.31114 -34.071563,-3.28084 -47.909978,-14.72463 1.767866,-4.16302 4.461089,-7.86685 7.623034,-10.60392"
       style="fill:#2c5aa0;fill-opacity:1;fill-rule:nonzero;stroke:none;stroke-width:0.0561248" />
  </g>
</svg>
