<?xml version="1.0" encoding="UTF-8" standalone="no"?>
<!-- Created with Inkscape (http://www.inkscape.org/) -->

<svg
   width="400mm"
   height="200mm"
   viewBox="0 0 400 200"
   version="1.1"
   id="svg1"
   inkscape:version="1.4.3 (0d15f75, 2025-12-25)"
   sodipodi:docname="single-day-cloud-small.svg"
   xmlns:inkscape="http://www.inkscape.org/namespaces/inkscape"
   xmlns:sodipodi="http://sodipodi.sourceforge.net/DTD/sodipodi-0.dtd"
   xmlns="http://www.w3.org/2000/svg"
   xmlns:svg="http://www.w3.org/2000/svg">
  <sodipodi:namedview
     id="namedview1"
     pagecolor="#ffffff"
     bordercolor="#000000"
     borderopacity="0.25"
     inkscape:showpageshadow="2"
     inkscape:pageopacity="0.0"
     inkscape:pagecheckerboard="true"
     inkscape:deskcolor="#d1d1d1"
     inkscape:document-units="mm"
     inkscape:zoom="0.27258036"
     inkscape:cx="533.78754"
     inkscape:cy="566.80533"
     inkscape:window-width="944"
     inkscape:window-height="626"
     inkscape:window-x="0"
     inkscape:window-y="30"
     inkscape:window-maximized="0"
     inkscape:current-layer="layer1" />
  <defs
     id="defs1" />
  <g
     inkscape:label="Layer 1"
     inkscape:groupmode="layer"
     id="layer1">
    <path
       id="path7"
       d="m 91.756512,107.24589 c 2.474809,-1.70573 5.395777,-2.6355 8.336288,-2.41531 0.80756,0.0596 1.61839,0.20628 2.40644,0.43694 3.36709,-6.351064 9.0462,-11.324974 15.66637,-12.992234 5.88749,-1.478536 12.36766,-0.111916 17.2913,3.56876 0.0113,-0.0275 0.0225,-0.0558 0.0376,-0.084 8.16046,-17.550206 37.8585,-26.452849 51.89994,-12.446986 1.44906,-12.988718 6.97511,-25.778218 16.37624,-34.254457 7.75339,-6.990743 18.20632,-10.48608 28.17404,-9.143878 8.19628,-12.827933 28.94581,-11.835272 39.52902,-2.978017 3.18145,2.66343 5.72143,6.309087 7.01093,10.377705 5.4935,-1.632338 11.7457,-0.153936 16.22973,3.69807 5.23949,4.498536 8.03995,11.884208 7.7827,19.081163 -0.13042,3.712052 -1.03225,7.350718 -2.52371,10.706274 5.62702,2.14614 10.64834,6.14833 14.05448,11.41933 2.77442,4.299286 4.43516,9.37802 4.90733,14.58263 7.50265,7.70725 11.25399,21.2937 4.40912,30.4725 -6.58763,8.82929 -21.92506,12.17083 -31.54762,6.60973 -3.57878,2.96755 -7.85762,5.01933 -12.27,5.88967 -9.73002,1.92595 -19.83448,-1.24085 -28.16754,-6.72506 -11.06511,6.8439 -27.33066,5.93513 -38.3274,1.18844 -6.07309,-2.62155 -11.58937,-6.76004 -15.54913,-12.35259 -7.24213,11.26554 -21.4399,17.42086 -32.88927,21.18533 -15.94316,5.24304 -40.95525,5.36188 -50.15123,-12.98173 -0.40704,-0.81442 -0.73919,-1.68827 -0.97039,-2.58309 -2.56927,1.28979 -5.33718,2.09721 -8.16696,2.29295 -6.007995,0.41597 -12.230912,-2.07624 -16.184134,-6.94876 -3.953222,-4.87253 -5.369728,-12.10792 -3.161938,-18.11995 1.12344,-3.06889 3.220536,-5.70092 5.799574,-7.48354"
       style="fill:#c7ebfa;fill-opacity:1;fill-rule:nonzero;stroke:none;stroke-width:0.0337375" />
    <path
       id="path8"
       d="m 223.88669,118.86097 c 1.08112,1.38067 1.90499,2.99551 2.36738,4.73619 0.6936,2.60753 0.56336,5.44577 -0.29318,7.9939 1.73889,-1.46108 3.21727,-3.24019 4.23329,-5.33743 1.86913,-3.85187 1.77794,-8.79083 -0.64154,-12.40852 -2.50413,-3.75052 -6.79601,-4.93892 -10.92183,-4.76766 -1.41651,-2.36985 -3.71225,-4.149 -6.29456,-4.67327 -3.16844,-0.64316 -6.57785,0.63612 -8.79868,3.11084 0.87269,-0.10848 1.75516,-0.0699 2.61486,0.12914 2.79723,0.65014 5.20366,2.97457 6.09591,5.88967 0.0913,0.30064 0.16613,0.60472 0.21499,0.9158 1.94732,-0.38798 3.97927,-0.27964 5.86472,0.367 2.16223,0.74102 4.0965,2.1811 5.5586,4.04413"
       style="fill:#ffffff;fill-opacity:1;fill-rule:nonzero;stroke:none;stroke-width:0.0337375" />
    <path
       id="path9"
       d="m 174.15552,129.0814 c 0.0188,0.96122 -0.0338,1.93989 -0.14659,2.91162 -2.19479,-4.04761 -6.12523,-7.0152 -10.45289,-7.71428 -3.61133,-0.58371 -7.39196,0.42644 -10.41061,2.62156 -1.06484,-2.05878 -2.53672,-3.8694 -4.32447,-5.23609 -2.90793,-2.23003 -6.58108,-3.2262 -10.13705,-2.89412 3.75458,-3.7051 8.69122,-6.21125 13.81348,-4.4671 2.02545,0.68861 3.90767,2.17063 5.09624,4.10705 3.06098,-0.76895 6.3043,-1.16044 9.32946,-0.27274 5.11902,1.50302 7.1282,6.033 7.23239,10.94396"
       style="fill:#ffffff;fill-opacity:1;fill-rule:nonzero;stroke:none;stroke-width:0.0337375" />
    <path
       id="path10"
       d="m 249.58592,76.934142 c 6.67554,1.635848 9.91889,6.969768 11.42331,13.222968 6.2522,0.0768 12.89196,1.78961 14.40942,9.105366 0.42008,2.027314 0.34844,4.107054 0.0226,6.162324 4.04768,-2.88717 6.66904,-8.081244 6.47366,-13.3208 -0.23116,-6.29163 -4.51658,-12.17431 -10.14682,-13.94299 -0.98343,-0.30752 -1.98964,-0.496311 -2.99588,-0.597695 -4.35698,-12.244217 -20.43042,-19.304834 -31.01032,-12.303656 -1.6868,1.115017 -3.11962,2.527161 -4.29188,4.138526 -2.45531,3.373015 -3.79367,7.633828 -4.04441,11.964585 5.64979,-4.236363 13.56273,-6.046949 20.16013,-4.428628 z M 91.756512,107.24589 c 2.474809,-1.70573 5.395777,-2.6355 8.336288,-2.41531 0.80756,0.0596 1.61839,0.20628 2.40644,0.43694 3.36709,-6.351064 9.0462,-11.324974 15.66637,-12.992234 5.88749,-1.478536 12.36766,-0.111916 17.28803,3.56876 0.0113,-0.0275 0.0263,-0.0558 0.0391,-0.084 8.16042,-17.550206 37.85846,-26.452849 51.89991,-12.446986 1.44905,-12.988718 6.97511,-25.778218 16.37624,-34.254457 7.75339,-6.990743 18.20632,-10.489592 28.17404,-9.143878 8.19627,-12.827933 28.94581,-11.835272 39.52902,-2.978017 3.18144,2.66343 5.72143,6.305609 7.01093,10.377705 5.4935,-1.632338 11.7457,-0.153936 16.22972,3.69807 5.23949,4.498536 8.03996,11.884208 7.78271,19.081163 -0.13005,3.712052 -1.03225,7.350718 -2.52367,10.706274 5.62697,2.14614 10.64829,6.14833 14.05444,11.41933 0.98015,1.520486 1.82357,3.138806 2.52367,4.827066 1.27649,3.082924 2.08082,6.393024 2.38366,9.755564 4.01836,4.12799 6.95887,9.94076 7.7762,15.85843 -3.43219,1.9574 -7.3724,2.89764 -11.24748,2.5481 -4.34725,-0.39148 -8.52188,-2.39082 -11.78151,-5.47721 -1.21463,1.29678 -2.64741,2.36985 -4.16164,3.11084 -2.92747,1.43312 -6.08937,1.88053 -9.28713,1.80711 -5.07016,9.01804 -18.20309,10.3183 -26.71848,7.39969 -4.52308,-1.54845 -8.63586,-4.57544 -11.62847,-8.59161 -3.29544,-4.42859 -5.08643,-10.0771 -6.48666,-15.49491 -4.15837,0.35653 -8.33629,0.0523 -12.36442,-1.12548 -6.93279,-2.02383 -13.3185,-6.948804 -16.67582,-13.663364 -4.77386,-0.51384 -9.47277,-1.967886 -13.75488,-4.316766 -1.48164,-0.81441 -2.91446,-1.73369 -4.2756,-2.74736 -0.40053,4.18743 -1.40023,8.235076 -3.43873,11.814296 -4.06719,7.134044 -11.9704,11.279524 -19.75961,11.220124 -6.66253,-0.0524 -13.13292,-2.95708 -18.29427,-7.51502 -2.55622,1.83855 -5.38273,3.26464 -8.34929,4.18044 -4.56217,1.41211 -9.44019,1.61484 -14.09681,0.62218 -4.74778,7.4521 -13.33154,11.94361 -21.83389,11.97509 -8.31024,0.031 -16.350229,-3.77849 -22.64802,-9.65769 0.57963,-0.54876 1.201583,-1.0521 1.849622,-1.50299"
       style="fill:#ffffff;fill-opacity:1;fill-rule:nonzero;stroke:none;stroke-width:0.0337375" />
  </g>
</svg>
